{
.appVersion = "1270";
DisplayStrings = (

glyphs = (
{
glyphname = .notdef;
lastChange = "2019-10-01 20:35:29 +0000";
layers = (
{
layerId = UUID0;
paths = (
{
closed = 1;
nodes = (
"505 0 LINE",
"505 714 LINE",
"94 714 LINE",
"94 0 LINE"
);
},
{
closed = 1;
nodes = (
"145 663 LINE",
"454 663 LINE",
"454 51 LINE",
"145 51 LINE"
);
}
);
width = 600;
},
{
layerId = "7821FCCF-1A09-48AA-92A6-4648A23E0102";
paths = (
{
closed = 1;
nodes = (
"505 0 LINE",
"505 714 LINE",
"94 714 LINE",
"94 0 LINE"
);
},
{
closed = 1;
nodes = (
"145 663 LINE",
"454 663 LINE",
"454 51 LINE",
"145 51 LINE"
);
}
);
width = 600;
}
);
},
{
glyphname = hyphen;
production = hyphen;
lastChange = "2019-10-26 12:54:53 +0000";
layers = (
{
associatedMasterId = UUID0;
background = {
paths = (
{
closed = 1;
nodes = (
"297 192 LINE",
"297 344 LINE",
"21 344 LINE",
"21 192 LINE"
);
}
);
};
layerId = "0A718E2F-231D-484E-9433-16A5230D2CE8";
name = "new Layer";
paths = (
{
closed = 1;
nodes = (
"297 192 LINE",
"297 344 LINE",
"21 344 LINE",
"21 192 LINE"
);
}
);
width = 318;
},
{
associatedMasterId = UUID0;
background = {
paths = (
{
closed = 1;
nodes = (
"296 192 LINE",
"296 344 LINE",
"29 344 LINE",
"29 192 LINE"
);
}
);
};
layerId = "98E204A9-1C79-49C7-AB3E-40A925F56409";
name = "new Layer";
paths = (
{
closed = 1;
nodes = (
"296 192 LINE",
"296 344 LINE",
"29 344 LINE",
"29 192 LINE"
);
}
);
width = 325;
},
{
associatedMasterId = UUID0;
background = {
paths = (
{
closed = 1;
nodes = (
"282 229 LINE",
"282 307 LINE",
"40 307 LINE",
"40 229 LINE"
);
}
);
};
layerId = "9FF96064-8718-4A86-A5C8-73C592101F67";
name = "new Layer";
paths = (
{
closed = 1;
nodes = (
"282 229 LINE",
"282 307 LINE",
"40 307 LINE",
"40 229 LINE"
);
}
);
width = 322;
},
{
associatedMasterId = UUID0;
background = {
paths = (
{
closed = 1;
nodes = (
"292 207 LINE",
"292 329 LINE",
"30 329 LINE",
"30 207 LINE"
);
}
);
};
layerId = "134B12F2-BF5D-48E3-8003-C7502B438C7E";
name = "new Layer";
paths = (
{
closed = 1;
nodes = (
"292 207 LINE",
"292 329 LINE",
"30 329 LINE",
"30 207 LINE"
);
}
);
width = 322;
},
{
associatedMasterId = UUID0;
background = {
paths = (
{
closed = 1;
nodes = (
"247 229 LINE",
"247 310 LINE",
"27 310 LINE",
"27 229 LINE"
);
}
);
};
layerId = "36F3C8CB-53EE-4548-BFDE-2C03212BACAA";
name = "new Layer";
paths = (
{
closed = 1;
nodes = (
"247 229 LINE",
"247 310 LINE",
"27 310 LINE",
"27 229 LINE"
);
}
);
width = 274;
},
{
associatedMasterId = UUID0;
background = {
paths = (
{
closed = 1;
nodes = (
"277 206 LINE",
"277 331 LINE",
"28 331 LINE",
"28 206 LINE"
);
}
);
};
layerId = "43B45EC1-5522-4B1A-B0C7-88628E50A583";
name = "new Layer";
paths = (
{
closed = 1;
nodes = (
"277 206 LINE",
"277 331 LINE",
"28 331 LINE",
"28 206 LINE"
);
}
);
width = 305;
},
{
layerId = UUID0;
paths = (
{
closed = 1;
nodes = (
"282 229 LINE",
"282 307 LINE",
"40 307 LINE",
"40 229 LINE"
);
}
);
width = 322;
},
{
associatedMasterId = UUID0;
background = {
paths = (
{
closed = 1;
nodes = (
"237 259 LINE",
"237 286 LINE",
"26 286 LINE",
"26 259 LINE"
);
}
);
};
layerId = "029FEF0C-5FA4-4A3E-AC23-838A1147A554";
name = "new Layer";
paths = (
{
closed = 1;
nodes = (
"237 259 LINE",
"237 286 LINE",
"26 286 LINE",
"26 259 LINE"
);
}
);
width = 263;
},
{
associatedMasterId = "7821FCCF-1A09-48AA-92A6-4648A23E0102";
background = {
paths = (
{
closed = 1;
nodes = (
"297 192 LINE",
"297 344 LINE",
"21 344 LINE",
"21 192 LINE"
);
}
);
};
layerId = "65C9F61A-3348-481E-9B3A-DB95A9AAEBC7";
name = "new Layer";
paths = (
{
closed = 1;
nodes = (
"297 192 LINE",
"297 344 LINE",
"21 344 LINE",
"21 192 LINE"
);
}
);
width = 318;
},
{
associatedMasterId = "7821FCCF-1A09-48AA-92A6-4648A23E0102";
background = {
paths = (
{
closed = 1;
nodes = (
"296 192 LINE",
"296 344 LINE",
"29 344 LINE",
"29 192 LINE"
);
}
);
};
layerId = "D72EEDBB-445A-449D-B0C8-446F56669B75";
name = "new Layer";
paths = (
{
closed = 1;
nodes = (
"296 192 LINE",
"296 344 LINE",
"29 344 LINE",
"29 192 LINE"
);
}
);
width = 325;
},
{
associatedMasterId = "7821FCCF-1A09-48AA-92A6-4648A23E0102";
background = {
paths = (
{
closed = 1;
nodes = (
"282 229 LINE",
"282 307 LINE",
"40 307 LINE",
"40 229 LINE"
);
}
);
};
layerId = "83EB0F2A-E0B0-47D0-B890-D2775C740782";
name = "new Layer";
paths = (
{
closed = 1;
nodes = (
"282 229 LINE",
"282 307 LINE",
"40 307 LINE",
"40 229 LINE"
);
}
);
width = 322;
},
{
associatedMasterId = "7821FCCF-1A09-48AA-92A6-4648A23E0102";
background = {
paths = (
{
closed = 1;
nodes = (
"292 207 LINE",
"292 329 LINE",
"30 329 LINE",
"30 207 LINE"
);
}
);
};
layerId = "6CDDE203-6914-4221-9108-F0FA5571A02C";
name = "new Layer";
paths = (
{
closed = 1;
nodes = (
"292 207 LINE",
"292 329 LINE",
"30 329 LINE",
"30 207 LINE"
);
}
);
width = 322;
},
{
associatedMasterId = "7821FCCF-1A09-48AA-92A6-4648A23E0102";
background = {
paths = (
{
closed = 1;
nodes = (
"247 229 LINE",
"247 310 LINE",
"27 310 LINE",
"27 229 LINE"
);
}
);
};
layerId = "0ADBCD70-E0F6-419B-8E70-C5E6A061D66C";
name = "new Layer";
paths = (
{
closed = 1;
nodes = (
"247 229 LINE",
"247 310 LINE",
"27 310 LINE",
"27 229 LINE"
);
}
);
width = 274;
},
{
associatedMasterId = "7821FCCF-1A09-48AA-92A6-4648A23E0102";
background = {
paths = (
{
closed = 1;
nodes = (
"277 206 LINE",
"277 331 LINE",
"28 331 LINE",
"28 206 LINE"
);
}
);
};
layerId = "1EE5B0D5-6695-434E-A8A7-FCF00355DDCE";
name = "new Layer";
paths = (
{
closed = 1;
nodes = (
"277 206 LINE",
"277 331 LINE",
"28 331 LINE",
"28 206 LINE"
);
}
);
width = 305;
},
{
layerId = "7821FCCF-1A09-48AA-92A6-4648A23E0102";
paths = (
{
closed = 1;
nodes = (
"362 186 LINE",
"362 369 LINE",
"30 369 LINE",
"30 186 LINE"
);
}
);
width = 392;
},
{
associatedMasterId = "7821FCCF-1A09-48AA-92A6-4648A23E0102";
background = {
paths = (
{
closed = 1;
nodes = (
"237 259 LINE",
"237 286 LINE",
"26 286 LINE",
"26 259 LINE"
);
}
);
};
layerId = "883DC23F-2666-49EA-84CE-F37F2EC58D32";
name = "new Layer";
paths = (
{
closed = 1;
nodes = (
"237 259 LINE",
"237 286 LINE",
"26 286 LINE",
"26 259 LINE"
);
}
);
width = 263;
}
);
leftKerningGroup = hyphen.right;
rightKerningGroup = hyphen.left;
unicode = 002D;
},
{
glyphname = uni2010;
production = uni2010;
lastChange = "2019-10-26 12:55:02 +0000";
layers = (
{
associatedMasterId = UUID0;
background = {
paths = (
{
closed = 1;
nodes = (
"297 192 LINE",
"297 344 LINE",
"21 344 LINE",
"21 192 LINE"
);
}
);
};
layerId = "0A718E2F-231D-484E-9433-16A5230D2CE8";
name = "new Layer";
paths = (
{
closed = 1;
nodes = (
"297 192 LINE",
"297 344 LINE",
"21 344 LINE",
"21 192 LINE"
);
}
);
width = 318;
},
{
associatedMasterId = UUID0;
background = {
paths = (
{
closed = 1;
nodes = (
"296 192 LINE",
"296 344 LINE",
"29 344 LINE",
"29 192 LINE"
);
}
);
};
layerId = "98E204A9-1C79-49C7-AB3E-40A925F56409";
name = "new Layer";
paths = (
{
closed = 1;
nodes = (
"296 192 LINE",
"296 344 LINE",
"29 344 LINE",
"29 192 LINE"
);
}
);
width = 325;
},
{
associatedMasterId = UUID0;
background = {
paths = (
{
closed = 1;
nodes = (
"282 229 LINE",
"282 307 LINE",
"40 307 LINE",
"40 229 LINE"
);
}
);
};
layerId = "9FF96064-8718-4A86-A5C8-73C592101F67";
name = "new Layer";
paths = (
{
closed = 1;
nodes = (
"282 229 LINE",
"282 307 LINE",
"40 307 LINE",
"40 229 LINE"
);
}
);
width = 322;
},
{
associatedMasterId = UUID0;
background = {
paths = (
{
closed = 1;
nodes = (
"292 207 LINE",
"292 329 LINE",
"30 329 LINE",
"30 207 LINE"
);
}
);
};
layerId = "134B12F2-BF5D-48E3-8003-C7502B438C7E";
name = "new Layer";
paths = (
{
closed = 1;
nodes = (
"292 207 LINE",
"292 329 LINE",
"30 329 LINE",
"30 207 LINE"
);
}
);
width = 322;
},
{
associatedMasterId = UUID0;
background = {
paths = (
{
closed = 1;
nodes = (
"247 229 LINE",
"247 310 LINE",
"27 310 LINE",
"27 229 LINE"
);
}
);
};
layerId = "36F3C8CB-53EE-4548-BFDE-2C03212BACAA";
name = "new Layer";
paths = (
{
closed = 1;
nodes = (
"247 229 LINE",
"247 310 LINE",
"27 310 LINE",
"27 229 LINE"
);
}
);
width = 274;
},
{
associatedMasterId = UUID0;
background = {
paths = (
{
closed = 1;
nodes = (
"277 206 LINE",
"277 331 LINE",
"28 331 LINE",
"28 206 LINE"
);
}
);
};
layerId = "43B45EC1-5522-4B1A-B0C7-88628E50A583";
name = "new Layer";
paths = (
{
closed = 1;
nodes = (
"277 206 LINE",
"277 331 LINE",
"28 331 LINE",
"28 206 LINE"
);
}
);
width = 305;
},
{
layerId = UUID0;
paths = (
{
closed = 1;
nodes = (
"282 229 LINE",
"282 307 LINE",
"40 307 LINE",
"40 229 LINE"
);
}
);
width = 322;
},
{
associatedMasterId = UUID0;
background = {
paths = (
{
closed = 1;
nodes = (
"237 259 LINE",
"237 286 LINE",
"26 286 LINE",
"26 259 LINE"
);
}
);
};
layerId = "029FEF0C-5FA4-4A3E-AC23-838A1147A554";
name = "new Layer";
paths = (
{
closed = 1;
nodes = (
"237 259 LINE",
"237 286 LINE",
"26 286 LINE",
"26 259 LINE"
);
}
);
width = 263;
},
{
associatedMasterId = "7821FCCF-1A09-48AA-92A6-4648A23E0102";
background = {
paths = (
{
closed = 1;
nodes = (
"297 192 LINE",
"297 344 LINE",
"21 344 LINE",
"21 192 LINE"
);
}
);
};
layerId = "0CF15F20-D7D9-4D4A-8A3B-7FED05E51771";
name = "new Layer";
paths = (
{
closed = 1;
nodes = (
"297 192 LINE",
"297 344 LINE",
"21 344 LINE",
"21 192 LINE"
);
}
);
width = 318;
},
{
associatedMasterId = "7821FCCF-1A09-48AA-92A6-4648A23E0102";
background = {
paths = (
{
closed = 1;
nodes = (
"296 192 LINE",
"296 344 LINE",
"29 344 LINE",
"29 192 LINE"
);
}
);
};
layerId = "27B7F28B-3443-4EAF-B719-ADEC3F7B6818";
name = "new Layer";
paths = (
{
closed = 1;
nodes = (
"296 192 LINE",
"296 344 LINE",
"29 344 LINE",
"29 192 LINE"
);
}
);
width = 325;
},
{
associatedMasterId = "7821FCCF-1A09-48AA-92A6-4648A23E0102";
background = {
paths = (
{
closed = 1;
nodes = (
"282 229 LINE",
"282 307 LINE",
"40 307 LINE",
"40 229 LINE"
);
}
);
};
layerId = "59ED3761-05EB-4E3F-9389-991F6C138130";
name = "new Layer";
paths = (
{
closed = 1;
nodes = (
"282 229 LINE",
"282 307 LINE",
"40 307 LINE",
"40 229 LINE"
);
}
);
width = 322;
},
{
associatedMasterId = "7821FCCF-1A09-48AA-92A6-4648A23E0102";
background = {
paths = (
{
closed = 1;
nodes = (
"292 207 LINE",
"292 329 LINE",
"30 329 LINE",
"30 207 LINE"
);
}
);
};
layerId = "5785353F-C341-4E43-B42E-6F03733F5537";
name = "new Layer";
paths = (
{
closed = 1;
nodes = (
"292 207 LINE",
"292 329 LINE",
"30 329 LINE",
"30 207 LINE"
);
}
);
width = 322;
},
{
associatedMasterId = "7821FCCF-1A09-48AA-92A6-4648A23E0102";
background = {
paths = (
{
closed = 1;
nodes = (
"247 229 LINE",
"247 310 LINE",
"27 310 LINE",
"27 229 LINE"
);
}
);
};
layerId = "6BDD71FD-C35A-4DE0-9A43-E98AD2B26507";
name = "new Layer";
paths = (
{
closed = 1;
nodes = (
"247 229 LINE",
"247 310 LINE",
"27 310 LINE",
"27 229 LINE"
);
}
);
width = 274;
},
{
associatedMasterId = "7821FCCF-1A09-48AA-92A6-4648A23E0102";
background = {
paths = (
{
closed = 1;
nodes = (
"277 206 LINE",
"277 331 LINE",
"28 331 LINE",
"28 206 LINE"
);
}
);
};
layerId = "ACDAE227-0E63-4E7B-9F8A-473C383A585B";
name = "new Layer";
paths = (
{
closed = 1;
nodes = (
"277 206 LINE",
"277 331 LINE",
"28 331 LINE",
"28 206 LINE"
);
}
);
width = 305;
},
{
layerId = "7821FCCF-1A09-48AA-92A6-4648A23E0102";
paths = (
{
closed = 1;
nodes = (
"362 186 LINE",
"362 369 LINE",
"30 369 LINE",
"30 186 LINE"
);
}
);
width = 392;
},
{
associatedMasterId = "7821FCCF-1A09-48AA-92A6-4648A23E0102";
background = {
paths = (
{
closed = 1;
nodes = (
"237 259 LINE",
"237 286 LINE",
"26 286 LINE",
"26 259 LINE"
);
}
);
};
layerId = "88B8C8E4-A7AD-4EBC-8049-D0F7F88D0425";
name = "new Layer";
paths = (
{
closed = 1;
nodes = (
"237 259 LINE",
"237 286 LINE",
"26 286 LINE",
"26 259 LINE"
);
}
);
width = 263;
}
);
leftKerningGroup = hyphen.right;
rightKerningGroup = hyphen.left;
unicode = 2010;
},
{
glyphname = uniA900;
lastChange = "2019-10-26 11:17:54 +0000";
layers = (
{
layerId = UUID0;
paths = (
{
closed = 1;
nodes = (
"628 -10 OFFCURVE",
"684 49 OFFCURVE",
"684 272 CURVE SMOOTH",
"684 494 OFFCURVE",
"620 546 OFFCURVE",
"387 546 CURVE SMOOTH",
"139 546 OFFCURVE",
"88 494 OFFCURVE",
"88 272 CURVE SMOOTH",
"88 49 OFFCURVE",
"154 -10 OFFCURVE",
"382 -10 CURVE SMOOTH"
);
},
{
closed = 1;
nodes = (
"210 60 OFFCURVE",
"177 113 OFFCURVE",
"177 272 CURVE SMOOTH",
"177 436 OFFCURVE",
"203 476 OFFCURVE",
"384 476 CURVE SMOOTH",
"559 476 OFFCURVE",
"595 431 OFFCURVE",
"595 272 CURVE SMOOTH",
"595 107 OFFCURVE",
"563 60 OFFCURVE",
"385 60 CURVE SMOOTH"
);
}
);
width = 772;
},
{
layerId = "7821FCCF-1A09-48AA-92A6-4648A23E0102";
paths = (
{
closed = 1;
nodes = (
"671 -10 OFFCURVE",
"747 49 OFFCURVE",
"747 272 CURVE SMOOTH",
"747 510 OFFCURVE",
"663 562 OFFCURVE",
"402 562 CURVE SMOOTH",
"136 562 OFFCURVE",
"65 510 OFFCURVE",
"65 272 CURVE SMOOTH",
"65 49 OFFCURVE",
"151 -10 OFFCURVE",
"397 -10 CURVE SMOOTH"
);
},
{
closed = 1;
nodes = (
"292 116 OFFCURVE",
"259 169 OFFCURVE",
"259 272 CURVE SMOOTH",
"259 396 OFFCURVE",
"285 436 OFFCURVE",
"399 436 CURVE SMOOTH",
"517 436 OFFCURVE",
"553 391 OFFCURVE",
"553 272 CURVE SMOOTH",
"553 163 OFFCURVE",
"521 116 OFFCURVE",
"400 116 CURVE SMOOTH"
);
}
);
width = 812;
}
);
unicode = A900;
category = Letter;
},
{
glyphname = uniA901;
lastChange = "2019-10-28 10:41:31 +0000";
layers = (
{
layerId = UUID0;
paths = (
{
closed = 1;
nodes = (
"539 0 LINE SMOOTH",
"629 0 OFFCURVE",
"684 24 OFFCURVE",
"684 131 CURVE SMOOTH",
"684 205 LINE",
"630 205 LINE SMOOTH",
"480 205 OFFCURVE",
"411 162 OFFCURVE",
"328 69 CURVE",
"189 69 OFFCURVE",
"177 92 OFFCURVE",
"177 189 CURVE SMOOTH",
"177 270 OFFCURVE",
"198 293 OFFCURVE",
"374 293 CURVE SMOOTH",
"555 293 OFFCURVE",
"585 280 OFFCURVE",
"600 241 CURVE",
"684 241 LINE",
"684 536 LINE",
"88 536 LINE",
"88 467 LINE",
"600 467 LINE",
"600 341 LINE",
"549 358 OFFCURVE",
"474 364 OFFCURVE",
"377 364 CURVE SMOOTH",
"139 364 OFFCURVE",
"88 307 OFFCURVE",
"88 189 CURVE SMOOTH",
"88 22 OFFCURVE",
"135 0 OFFCURVE",
"375 0 CURVE SMOOTH"
);
},
{
closed = 1;
nodes = (
"477 119 OFFCURVE",
"499 135 OFFCURVE",
"598 139 CURVE",
"598 124 LINE SMOOTH",
"598 99 OFFCURVE",
"586 69 OFFCURVE",
"541 69 CURVE SMOOTH",
"419 69 LINE"
);
}
);
width = 772;
},
{
layerId = "7821FCCF-1A09-48AA-92A6-4648A23E0102";
paths = (
{
closed = 1;
nodes = (
"494 0 LINE SMOOTH",
"692 0 OFFCURVE",
"747 24 OFFCURVE",
"747 167 CURVE SMOOTH",
"747 241 LINE",
"575 241 LINE SMOOTH",
"455 241 OFFCURVE",
"372 193 OFFCURVE",
"303 110 CURVE",
"274 110 OFFCURVE",
"262 133 OFFCURVE",
"262 189 CURVE SMOOTH",
"262 259 OFFCURVE",
"283 282 OFFCURVE",
"389 282 CURVE SMOOTH",
"502 282 OFFCURVE",
"539 276 OFFCURVE",
"555 260 CURVE",
"747 260 LINE",
"747 553 LINE",
"65 553 LINE",
"65 438 LINE",
"555 438 LINE",
"555 365 LINE",
"514 382 OFFCURVE",
"463 388 OFFCURVE",
"392 388 CURVE SMOOTH",
"116 388 OFFCURVE",
"65 321 OFFCURVE",
"65 189 CURVE SMOOTH",
"65 22 OFFCURVE",
"112 0 OFFCURVE",
"420 0 CURVE SMOOTH"
);
},
{
closed = 1;
nodes = (
"449 151 OFFCURVE",
"484 165 OFFCURVE",
"563 169 CURVE",
"563 160 LINE SMOOTH",
"563 140 OFFCURVE",
"551 110 OFFCURVE",
"506 110 CURVE SMOOTH",
"407 110 LINE"
);
}
);
width = 812;
}
);
unicode = A901;
category = Letter;
},
{
glyphname = uniA902;
lastChange = "2019-10-26 11:21:40 +0000";
layers = (
{
layerId = UUID0;
paths = (
{
closed = 1;
nodes = (
"393 0 LINE",
"684 536 LINE",
"591 536 LINE",
"389 144 LINE",
"187 536 LINE",
"88 536 LINE",
"378 0 LINE"
);
}
);
width = 772;
},
{
layerId = "7821FCCF-1A09-48AA-92A6-4648A23E0102";
paths = (
{
closed = 1;
nodes = (
"437 0 LINE",
"747 553 LINE",
"581 553 LINE",
"409 221 LINE",
"245 553 LINE",
"65 553 LINE",
"374 0 LINE"
);
}
);
width = 812;
}
);
unicode = A902;
category = Letter;
},
{
glyphname = uniA903;
lastChange = "2019-10-26 12:00:39 +0000";
layers = (
{
layerId = UUID0;
paths = (
{
closed = 1;
nodes = (
"539 0 LINE SMOOTH",
"629 0 OFFCURVE",
"684 24 OFFCURVE",
"684 131 CURVE SMOOTH",
"684 259 LINE",
"633 259 LINE SMOOTH",
"483 259 OFFCURVE",
"361 162 OFFCURVE",
"278 69 CURVE",
"187 69 LINE",
"654 523 LINE",
"654 536 LINE",
"290 536 LINE SMOOTH",
"168 536 OFFCURVE",
"89 512 OFFCURVE",
"89 361 CURVE",
"171 361 LINE",
"171 445 OFFCURVE",
"225 467 OFFCURVE",
"290 467 CURVE SMOOTH",
"488 467 LINE",
"88 76 LINE",
"88 0 LINE"
);
},
{
closed = 1;
nodes = (
"432 119 OFFCURVE",
"500 180 OFFCURVE",
"599 184 CURVE",
"599 124 LINE SMOOTH",
"599 99 OFFCURVE",
"586 69 OFFCURVE",
"541 69 CURVE SMOOTH",
"374 69 LINE"
);
}
);
width = 772;
},
{
layerId = "7821FCCF-1A09-48AA-92A6-4648A23E0102";
paths = (
{
closed = 1;
nodes = (
"584 0 LINE SMOOTH",
"692 0 OFFCURVE",
"747 45 OFFCURVE",
"747 162 CURVE SMOOTH",
"747 333 LINE",
"687 333 LINE SMOOTH",
"528 333 OFFCURVE",
"415 226 OFFCURVE",
"333 129 CURVE",
"258 129 LINE",
"717 520 LINE",
"717 553 LINE",
"322 553 LINE SMOOTH",
"160 553 OFFCURVE",
"81 519 OFFCURVE",
"81 343 CURVE",
"213 343 LINE",
"213 407 OFFCURVE",
"237 429 OFFCURVE",
"322 429 CURVE SMOOTH",
"411 429 LINE",
"65 133 LINE",
"65 0 LINE"
);
},
{
closed = 1;
nodes = (
"521 179 OFFCURVE",
"564 214 OFFCURVE",
"631 218 CURVE",
"631 184 LINE SMOOTH",
"631 159 OFFCURVE",
"619 129 OFFCURVE",
"586 129 CURVE SMOOTH",
"467 129 LINE"
);
}
);
width = 812;
}
);
unicode = A903;
category = Letter;
},
{
glyphname = uniA904;
lastChange = "2019-10-28 10:43:04 +0000";
layers = (
{
layerId = UUID0;
paths = (
{
closed = 1;
nodes = (
"520 -5 LINE SMOOTH",
"637 -5 OFFCURVE",
"684 60 OFFCURVE",
"684 170 CURVE SMOOTH",
"684 546 LINE",
"607 546 LINE SMOOTH",
"437 546 OFFCURVE",
"242 456 OFFCURVE",
"170 351 CURVE",
"165 352 LINE",
"169 369 OFFCURVE",
"174 408 OFFCURVE",
"174 458 CURVE SMOOTH",
"174 536 LINE",
"88 536 LINE",
"88 230 LINE",
"174 230 LINE",
"197 333 OFFCURVE",
"397 476 OFFCURVE",
"598 476 CURVE",
"598 155 LINE SMOOTH",
"598 90 OFFCURVE",
"562 67 OFFCURVE",
"527 67 CURVE",
"494 67 LINE",
"494 -5 LINE"
);
}
);
width = 772;
},
{
layerId = "7821FCCF-1A09-48AA-92A6-4648A23E0102";
paths = (
{
closed = 1;
nodes = (
"525 -5 LINE SMOOTH",
"680 -5 OFFCURVE",
"747 60 OFFCURVE",
"747 200 CURVE SMOOTH",
"747 563 LINE",
"617 563 LINE SMOOTH",
"427 563 OFFCURVE",
"326 482 OFFCURVE",
"257 380 CURVE",
"252 381 LINE",
"255 398 OFFCURVE",
"259 434 OFFCURVE",
"259 484 CURVE SMOOTH",
"259 553 LINE",
"65 553 LINE",
"65 179 LINE",
"257 179 LINE",
"288 278 OFFCURVE",
"402 419 OFFCURVE",
"553 419 CURVE",
"553 232 LINE SMOOTH",
"553 167 OFFCURVE",
"536 144 OFFCURVE",
"482 144 CURVE SMOOTH",
"444 144 LINE",
"444 -5 LINE"
);
}
);
width = 812;
}
);
unicode = A904;
},
{
glyphname = uniA905;
lastChange = "2019-10-26 11:19:54 +0000";
layers = (
{
layerId = UUID0;
paths = (
{
closed = 1;
nodes = (
"329 0 LINE",
"329 69 LINE",
"174 69 LINE",
"174 467 LINE",
"684 467 LINE",
"684 536 LINE",
"88 536 LINE",
"88 0 LINE"
);
}
);
width = 772;
},
{
layerId = "7821FCCF-1A09-48AA-92A6-4648A23E0102";
paths = (
{
closed = 1;
nodes = (
"65 0 LINE",
"411 0 LINE",
"411 125 LINE",
"242 125 LINE",
"242 428 LINE",
"747 428 LINE",
"747 553 LINE",
"65 553 LINE"
);
}
);
width = 812;
}
);
unicode = A905;
category = Letter;
},
{
glyphname = uniA906;
lastChange = "2019-10-26 11:19:36 +0000";
layers = (
{
layerId = UUID0;
paths = (
{
closed = 1;
nodes = (
"637 -10 OFFCURVE",
"684 42 OFFCURVE",
"684 152 CURVE SMOOTH",
"684 546 LINE",
"607 546 LINE",
"174 283 LINE",
"174 536 LINE",
"88 536 LINE",
"88 0 LINE",
"174 0 LINE",
"174 200 LINE",
"598 458 LINE",
"598 214 LINE",
"586 219 OFFCURVE",
"566 224 OFFCURVE",
"546 224 CURVE SMOOTH",
"448 224 OFFCURVE",
"415 176 OFFCURVE",
"415 107 CURVE SMOOTH",
"415 39 OFFCURVE",
"447 -10 OFFCURVE",
"548 -10 CURVE SMOOTH"
);
},
{
closed = 1;
nodes = (
"519 49 OFFCURVE",
"486 65 OFFCURVE",
"486 107 CURVE SMOOTH",
"486 147 OFFCURVE",
"516 165 OFFCURVE",
"547 165 CURVE SMOOTH",
"568 165 OFFCURVE",
"586 156 OFFCURVE",
"598 151 CURVE",
"598 137 LINE SMOOTH",
"598 72 OFFCURVE",
"577 49 OFFCURVE",
"547 49 CURVE SMOOTH"
);
}
);
width = 772;
},
{
layerId = "7821FCCF-1A09-48AA-92A6-4648A23E0102";
paths = (
{
closed = 1;
nodes = (
"684 -10 OFFCURVE",
"747 55 OFFCURVE",
"747 212 CURVE SMOOTH",
"747 563 LINE",
"562 563 LINE",
"259 363 LINE",
"259 553 LINE",
"65 553 LINE",
"65 0 LINE",
"259 0 LINE",
"259 210 LINE",
"553 404 LINE",
"553 233 LINE",
"541 238 OFFCURVE",
"521 245 OFFCURVE",
"491 245 CURVE SMOOTH",
"403 245 OFFCURVE",
"360 196 OFFCURVE",
"360 117 CURVE SMOOTH",
"360 42 OFFCURVE",
"413 -10 OFFCURVE",
"521 -10 CURVE SMOOTH"
);
},
{
closed = 1;
nodes = (
"461 68 OFFCURVE",
"443 84 OFFCURVE",
"443 120 CURVE SMOOTH",
"443 153 OFFCURVE",
"463 171 OFFCURVE",
"497 171 CURVE SMOOTH",
"523 171 OFFCURVE",
"541 162 OFFCURVE",
"553 157 CURVE",
"553 143 LINE SMOOTH",
"553 97 OFFCURVE",
"530 68 OFFCURVE",
"495 68 CURVE SMOOTH"
);
}
);
width = 812;
}
);
unicode = A906;
category = Letter;
},
{
glyphname = uniA907;
lastChange = "2019-10-26 11:19:28 +0000";
layers = (
{
layerId = UUID0;
paths = (
{
closed = 1;
nodes = (
"628 -10 OFFCURVE",
"684 49 OFFCURVE",
"684 272 CURVE SMOOTH",
"684 536 LINE",
"598 536 LINE",
"598 272 LINE SMOOTH",
"598 107 OFFCURVE",
"563 60 OFFCURVE",
"385 60 CURVE SMOOTH",
"210 60 OFFCURVE",
"174 113 OFFCURVE",
"174 272 CURVE SMOOTH",
"174 411 LINE",
"88 411 LINE",
"88 272 LINE SMOOTH",
"88 49 OFFCURVE",
"154 -10 OFFCURVE",
"382 -10 CURVE"
);
},
{
closed = 1;
nodes = (
"640 466 LINE",
"641 480 OFFCURVE",
"641 496 OFFCURVE",
"641 509 CURVE",
"608 536 LINE",
"443 536 LINE",
"443 466 LINE"
);
}
);
width = 772;
},
{
layerId = "7821FCCF-1A09-48AA-92A6-4648A23E0102";
paths = (
{
closed = 1;
nodes = (
"678 -10 OFFCURVE",
"747 49 OFFCURVE",
"747 272 CURVE SMOOTH",
"747 553 LINE",
"554 553 LINE",
"554 264 LINE SMOOTH",
"554 153 OFFCURVE",
"518 116 OFFCURVE",
"410 116 CURVE SMOOTH",
"293 116 OFFCURVE",
"258 153 OFFCURVE",
"258 264 CURVE SMOOTH",
"258 421 LINE",
"65 421 LINE",
"65 272 LINE SMOOTH",
"65 49 OFFCURVE",
"121 -10 OFFCURVE",
"410 -10 CURVE"
);
},
{
closed = 1;
nodes = (
"682 429 LINE",
"683 443 OFFCURVE",
"683 513 OFFCURVE",
"683 526 CURVE",
"564 553 LINE",
"405 553 LINE",
"405 429 LINE"
);
}
);
width = 812;
}
);
unicode = A907;
category = Letter;
},
{
glyphname = uniA908;
lastChange = "2019-10-26 11:19:04 +0000";
layers = (
{
layerId = UUID0;
paths = (
{
closed = 1;
nodes = (
"684 0 LINE",
"684 261 LINE",
"598 261 LINE",
"598 69 LINE",
"174 69 LINE",
"174 536 LINE",
"88 536 LINE",
"88 0 LINE"
);
}
);
width = 772;
},
{
layerId = "7821FCCF-1A09-48AA-92A6-4648A23E0102";
paths = (
{
closed = 1;
nodes = (
"747 0 LINE",
"747 283 LINE",
"553 283 LINE",
"553 125 LINE",
"259 125 LINE",
"259 553 LINE",
"65 553 LINE",
"65 0 LINE"
);
}
);
width = 812;
}
);
unicode = A908;
category = Letter;
},
{
glyphname = uniA909;
lastChange = "2019-10-26 11:18:50 +0000";
layers = (
{
layerId = UUID0;
paths = (
{
closed = 1;
nodes = (
"628 -10 OFFCURVE",
"684 49 OFFCURVE",
"684 272 CURVE SMOOTH",
"684 411 LINE",
"598 411 LINE",
"598 272 LINE SMOOTH",
"598 107 OFFCURVE",
"563 60 OFFCURVE",
"385 60 CURVE",
"210 60 OFFCURVE",
"174 113 OFFCURVE",
"174 272 CURVE SMOOTH",
"174 536 LINE",
"88 536 LINE",
"88 272 LINE SMOOTH",
"88 49 OFFCURVE",
"154 -10 OFFCURVE",
"382 -10 CURVE"
);
},
{
closed = 1;
nodes = (
"329 467 LINE",
"329 536 LINE",
"164 536 LINE",
"131 509 LINE",
"131 496 OFFCURVE",
"131 481 OFFCURVE",
"132 467 CURVE"
);
}
);
width = 772;
},
{
layerId = "7821FCCF-1A09-48AA-92A6-4648A23E0102";
paths = (
{
closed = 1;
nodes = (
"691 -10 OFFCURVE",
"747 49 OFFCURVE",
"747 272 CURVE SMOOTH",
"747 421 LINE",
"554 421 LINE",
"554 264 LINE SMOOTH",
"554 153 OFFCURVE",
"519 115 OFFCURVE",
"402 115 CURVE",
"294 115 OFFCURVE",
"258 153 OFFCURVE",
"258 264 CURVE SMOOTH",
"258 553 LINE",
"65 553 LINE",
"65 272 LINE SMOOTH",
"65 49 OFFCURVE",
"134 -10 OFFCURVE",
"390 -10 CURVE"
);
},
{
closed = 1;
nodes = (
"407 429 LINE",
"407 553 LINE",
"248 553 LINE",
"129 526 LINE",
"129 513 OFFCURVE",
"129 443 OFFCURVE",
"130 429 CURVE"
);
}
);
width = 812;
}
);
unicode = A909;
category = Letter;
},
{
glyphname = uniA90A;
lastChange = "2019-10-26 14:13:56 +0000";
layers = (
{
anchors = (
{
name = bottom;
position = "{385, 0}";
},
{
name = bottom_alt;
position = "{175, 0}";
},
{
name = top;
position = "{385, 605}";
}
);
layerId = UUID0;
paths = (
{
closed = 1;
nodes = (
"163 33 LINE",
"163 42 OFFCURVE",
"162 52 OFFCURVE",
"162 61 CURVE SMOOTH",
"162 369 OFFCURVE",
"434 477 OFFCURVE",
"598 477 CURVE",
"598 0 LINE",
"684 0 LINE",
"684 546 LINE",
"607 546 LINE SMOOTH",
"366 546 OFFCURVE",
"88 370 OFFCURVE",
"88 54 CURVE SMOOTH",
"88 0 LINE"
);
},
{
closed = 1;
nodes = (
"195 0 LINE SMOOTH",
"302 0 OFFCURVE",
"342 55 OFFCURVE",
"342 145 CURVE SMOOTH",
"342 536 LINE",
"88 536 LINE",
"88 466 LINE",
"257 466 LINE",
"257 130 LINE SMOOTH",
"257 85 OFFCURVE",
"230 69 OFFCURVE",
"205 69 CURVE SMOOTH",
"152 69 LINE",
"88 0 LINE"
);
}
);
width = 772;
},
{
anchors = (
{
name = bottom;
position = "{406, 0}";
},
{
name = bottom_alt;
position = "{263, 0}";
},
{
name = top;
position = "{406, 605}";
}
);
layerId = "7821FCCF-1A09-48AA-92A6-4648A23E0102";
paths = (
{
closed = 1;
nodes = (
"184 62 LINE",
"184 71 OFFCURVE",
"183 85 OFFCURVE",
"183 97 CURVE SMOOTH",
"183 313 OFFCURVE",
"420 438 OFFCURVE",
"553 438 CURVE",
"553 0 LINE",
"747 0 LINE",
"747 563 LINE",
"632 563 LINE SMOOTH",
"361 563 OFFCURVE",
"65 340 OFFCURVE",
"65 74 CURVE SMOOTH",
"65 0 LINE"
);
},
{
closed = 1;
nodes = (
"256 0 LINE SMOOTH",
"396 0 OFFCURVE",
"441 59 OFFCURVE",
"441 174 CURVE SMOOTH",
"441 553 LINE",
"95 553 LINE",
"95 453 LINE",
"268 453 LINE",
"268 156 LINE SMOOTH",
"268 108 OFFCURVE",
"247 99 OFFCURVE",
"216 99 CURVE SMOOTH",
"125 99 LINE",
"65 0 LINE"
);
}
);
width = 812;
}
);
unicode = A90A;
},
{
glyphname = uniA90B;
lastChange = "2019-10-26 14:13:03 +0000";
layers = (
{
anchors = (
{
name = bottom;
position = "{385, 0}";
},
{
name = bottom_alt;
position = "{175, 0}";
},
{
name = top;
position = "{385, 605}";
}
);
layerId = UUID0;
paths = (
{
closed = 1;
nodes = (
"620 -10 OFFCURVE",
"684 50 OFFCURVE",
"684 264 CURVE SMOOTH",
"684 487 OFFCURVE",
"618 546 OFFCURVE",
"390 546 CURVE SMOOTH",
"189 546 OFFCURVE",
"88 504 OFFCURVE",
"88 301 CURVE SMOOTH",
"88 288 OFFCURVE",
"88 271 OFFCURVE",
"89 257 CURVE",
"633 257 LINE",
"633 326 LINE",
"174 326 LINE",
"182 438 OFFCURVE",
"217 476 OFFCURVE",
"387 476 CURVE SMOOTH",
"562 476 OFFCURVE",
"595 423 OFFCURVE",
"595 264 CURVE SMOOTH",
"595 100 OFFCURVE",
"569 60 OFFCURVE",
"388 60 CURVE SMOOTH",
"237 60 OFFCURVE",
"173 88 OFFCURVE",
"173 205 CURVE",
"88 205 LINE",
"88 22 OFFCURVE",
"187 -10 OFFCURVE",
"385 -10 CURVE SMOOTH"
);
}
);
width = 772;
},
{
anchors = (
{
name = bottom;
position = "{406, 0}";
},
{
name = bottom_alt;
position = "{262, 0}";
},
{
name = top;
position = "{406, 605}";
}
);
layerId = "7821FCCF-1A09-48AA-92A6-4648A23E0102";
paths = (
{
closed = 1;
nodes = (
"683 -10 OFFCURVE",
"747 50 OFFCURVE",
"747 264 CURVE SMOOTH",
"747 484 OFFCURVE",
"681 562 OFFCURVE",
"402 562 CURVE SMOOTH",
"166 562 OFFCURVE",
"65 501 OFFCURVE",
"65 301 CURVE SMOOTH",
"65 288 OFFCURVE",
"65 261 OFFCURVE",
"66 237 CURVE",
"633 237 LINE",
"633 336 LINE",
"261 336 LINE",
"269 398 OFFCURVE",
"294 436 OFFCURVE",
"399 436 CURVE SMOOTH",
"517 436 OFFCURVE",
"550 383 OFFCURVE",
"550 264 CURVE SMOOTH",
"550 156 OFFCURVE",
"524 116 OFFCURVE",
"400 116 CURVE SMOOTH",
"324 116 OFFCURVE",
"260 144 OFFCURVE",
"260 205 CURVE",
"65 205 LINE",
"65 22 OFFCURVE",
"164 -10 OFFCURVE",
"397 -10 CURVE SMOOTH"
);
}
);
width = 812;
}
);
unicode = A90B;
},
{
glyphname = uniA90C;
lastChange = "2019-10-26 14:12:38 +0000";
layers = (
{
anchors = (
{
name = bottom;
position = "{385, 0}";
},
{
name = bottom_alt;
position = "{175, 0}";
},
{
name = top;
position = "{385, 605}";
}
);
layerId = UUID0;
paths = (
{
closed = 1;
nodes = (
"174 0 LINE",
"174 53 LINE SMOOTH",
"174 362 OFFCURVE",
"434 479 OFFCURVE",
"598 479 CURVE",
"598 0 LINE",
"684 0 LINE",
"684 546 LINE",
"607 546 LINE SMOOTH",
"474 546 OFFCURVE",
"326 490 OFFCURVE",
"233 391 CURVE SMOOTH",
"204 360 OFFCURVE",
"185 334 OFFCURVE",
"170 281 CURVE",
"165 282 LINE",
"168 299 OFFCURVE",
"174 334 OFFCURVE",
"174 391 CURVE SMOOTH",
"174 536 LINE",
"88 536 LINE",
"88 0 LINE"
);
},
{
closed = 1;
nodes = (
"633 207 LINE",
"633 276 LINE",
"203 276 LINE",
"127 207 LINE"
);
}
);
width = 772;
},
{
anchors = (
{
name = bottom;
position = "{406, 0}";
},
{
name = bottom_alt;
position = "{260, 0}";
},
{
name = top;
position = "{406, 605}";
}
);
layerId = "7821FCCF-1A09-48AA-92A6-4648A23E0102";
paths = (
{
closed = 1;
nodes = (
"258 0 LINE",
"258 73 LINE SMOOTH",
"258 271 OFFCURVE",
"420 420 OFFCURVE",
"554 420 CURVE",
"554 0 LINE",
"747 0 LINE",
"747 563 LINE",
"592 563 LINE SMOOTH",
"522 563 OFFCURVE",
"412 536 OFFCURVE",
"335 467 CURVE SMOOTH",
"291 428 OFFCURVE",
"271 396 OFFCURVE",
"256 360 CURVE",
"251 361 LINE",
"254 373 OFFCURVE",
"257 401 OFFCURVE",
"257 458 CURVE SMOOTH",
"257 553 LINE",
"65 553 LINE",
"65 0 LINE"
);
},
{
closed = 1;
nodes = (
"633 174 LINE",
"633 273 LINE",
"203 273 LINE",
"127 174 LINE"
);
}
);
width = 812;
}
);
unicode = A90C;
},
{
glyphname = uniA90D;
lastChange = "2019-10-26 14:12:14 +0000";
layers = (
{
anchors = (
{
name = bottom;
position = "{385, 0}";
},
{
name = bottom_alt;
position = "{175, 0}";
},
{
name = top;
position = "{385, 605}";
}
);
layerId = UUID0;
paths = (
{
closed = 1;
nodes = (
"587 -10 OFFCURVE",
"684 31 OFFCURVE",
"684 208 CURVE",
"600 208 LINE",
"600 95 OFFCURVE",
"545 60 OFFCURVE",
"385 60 CURVE SMOOTH",
"210 60 OFFCURVE",
"177 113 OFFCURVE",
"177 272 CURVE SMOOTH",
"177 436 OFFCURVE",
"203 476 OFFCURVE",
"384 476 CURVE SMOOTH",
"526 476 OFFCURVE",
"601 445 OFFCURVE",
"601 331 CURVE",
"684 331 LINE",
"684 512 OFFCURVE",
"585 546 OFFCURVE",
"387 546 CURVE SMOOTH",
"149 546 OFFCURVE",
"88 489 OFFCURVE",
"88 272 CURVE SMOOTH",
"88 49 OFFCURVE",
"154 -10 OFFCURVE",
"382 -10 CURVE SMOOTH"
);
}
);
width = 772;
},
{
anchors = (
{
name = bottom;
position = "{406, 0}";
},
{
name = bottom_alt;
position = "{260, 0}";
},
{
name = top;
position = "{406, 605}";
}
);
layerId = "7821FCCF-1A09-48AA-92A6-4648A23E0102";
paths = (
{
closed = 1;
nodes = (
"652 -10 OFFCURVE",
"747 33 OFFCURVE",
"747 208 CURVE",
"556 208 LINE",
"556 153 OFFCURVE",
"520 116 OFFCURVE",
"412 116 CURVE SMOOTH",
"292 116 OFFCURVE",
"262 169 OFFCURVE",
"262 272 CURVE SMOOTH",
"262 396 OFFCURVE",
"285 436 OFFCURVE",
"411 436 CURVE SMOOTH",
"511 436 OFFCURVE",
"557 412 OFFCURVE",
"557 331 CURVE",
"747 331 LINE",
"747 519 OFFCURVE",
"650 562 OFFCURVE",
"404 562 CURVE SMOOTH",
"133 562 OFFCURVE",
"65 489 OFFCURVE",
"65 272 CURVE SMOOTH",
"65 59 OFFCURVE",
"138 -10 OFFCURVE",
"399 -10 CURVE SMOOTH"
);
}
);
width = 812;
}
);
unicode = A90D;
},
{
glyphname = uniA90E;
lastChange = "2019-10-26 14:11:34 +0000";
layers = (
{
anchors = (
{
name = bottom;
position = "{385, 0}";
},
{
name = bottom_alt;
position = "{175, 0}";
},
{
name = top;
position = "{385, 605}";
}
);
layerId = UUID0;
paths = (
{
closed = 1;
nodes = (
"365 0 LINE",
"365 69 LINE",
"205 69 LINE",
"271 170 LINE",
"284 162 OFFCURVE",
"323 143 OFFCURVE",
"367 143 CURVE SMOOTH",
"422 143 OFFCURVE",
"489 179 OFFCURVE",
"489 253 CURVE SMOOTH",
"489 318 OFFCURVE",
"434 345 OFFCURVE",
"388 345 CURVE SMOOTH",
"333 345 OFFCURVE",
"298 321 OFFCURVE",
"243 242 CURVE",
"186 279 OFFCURVE",
"174 299 OFFCURVE",
"174 364 CURVE SMOOTH",
"174 435 OFFCURVE",
"226 476 OFFCURVE",
"388 476 CURVE SMOOTH",
"554 476 OFFCURVE",
"598 436 OFFCURVE",
"598 272 CURVE SMOOTH",
"598 0 LINE",
"684 0 LINE",
"684 272 LINE SMOOTH",
"684 494 OFFCURVE",
"637 546 OFFCURVE",
"385 546 CURVE SMOOTH",
"179 546 OFFCURVE",
"88 488 OFFCURVE",
"88 367 CURVE SMOOTH",
"88 269 OFFCURVE",
"154 230 OFFCURVE",
"212 196 CURVE",
"88 13 LINE",
"88 0 LINE"
);
},
{
closed = 1;
nodes = (
"343 193 OFFCURVE",
"306 207 OFFCURVE",
"300 213 CURVE",
"340 273 OFFCURVE",
"358 294 OFFCURVE",
"385 294 CURVE SMOOTH",
"409 294 OFFCURVE",
"429 277 OFFCURVE",
"429 246 CURVE SMOOTH",
"429 212 OFFCURVE",
"402 193 OFFCURVE",
"366 193 CURVE SMOOTH"
);
}
);
width = 772;
},
{
anchors = (
{
name = bottom;
position = "{396, 0}";
},
{
name = bottom_alt;
position = "{261, 0}";
},
{
name = top;
position = "{406, 605}";
}
);
layerId = "7821FCCF-1A09-48AA-92A6-4648A23E0102";
paths = (
{
closed = 1;
nodes = (
"410 0 LINE",
"410 109 LINE",
"261 109 LINE",
"297 166 LINE",
"323 156 OFFCURVE",
"347 150 OFFCURVE",
"387 150 CURVE SMOOTH",
"461 150 OFFCURVE",
"526 192 OFFCURVE",
"526 275 CURVE SMOOTH",
"526 345 OFFCURVE",
"479 377 OFFCURVE",
"414 377 CURVE SMOOTH",
"362 377 OFFCURVE",
"311 363 OFFCURVE",
"264 298 CURVE",
"250 311 OFFCURVE",
"235 330 OFFCURVE",
"235 360 CURVE SMOOTH",
"235 403 OFFCURVE",
"281 437 OFFCURVE",
"383 437 CURVE SMOOTH",
"509 437 OFFCURVE",
"553 397 OFFCURVE",
"553 289 CURVE SMOOTH",
"553 0 LINE",
"747 0 LINE",
"747 289 LINE SMOOTH",
"747 511 OFFCURVE",
"700 563 OFFCURVE",
"370 563 CURVE SMOOTH",
"156 563 OFFCURVE",
"65 505 OFFCURVE",
"65 374 CURVE SMOOTH",
"65 276 OFFCURVE",
"131 233 OFFCURVE",
"185 200 CURVE",
"65 23 LINE",
"65 0 LINE"
);
},
{
closed = 1;
nodes = (
"371 226 OFFCURVE",
"345 236 OFFCURVE",
"339 240 CURVE",
"377 298 OFFCURVE",
"390 309 OFFCURVE",
"414 309 CURVE SMOOTH",
"432 309 OFFCURVE",
"446 298 OFFCURVE",
"446 271 CURVE SMOOTH",
"446 245 OFFCURVE",
"424 226 OFFCURVE",
"395 226 CURVE SMOOTH"
);
}
);
width = 812;
}
);
unicode = A90E;
},
{
glyphname = uniA90F;
lastChange = "2019-10-26 14:15:54 +0000";
layers = (
{
anchors = (
{
name = bottom;
position = "{385, 0}";
},
{
name = bottom_alt;
position = "{175, 0}";
},
{
name = top;
position = "{385, 605}";
}
);
layerId = UUID0;
paths = (
{
closed = 1;
nodes = (
"212 -4 OFFCURVE",
"259 31 OFFCURVE",
"259 147 CURVE SMOOTH",
"259 308 LINE",
"409 308 OFFCURVE",
"564 176 OFFCURVE",
"598 0 CURVE",
"684 0 LINE",
"684 536 LINE",
"88 536 LINE",
"88 467 LINE",
"598 467 LINE",
"598 261 LINE SMOOTH",
"598 204 OFFCURVE",
"604 169 OFFCURVE",
"607 152 CURVE",
"602 151 LINE",
"561 289 OFFCURVE",
"402 375 OFFCURVE",
"266 375 CURVE SMOOTH",
"173 375 LINE",
"173 140 LINE SMOOTH",
"173 86 OFFCURVE",
"130 65 OFFCURVE",
"88 65 CURVE",
"88 -4 LINE"
);
}
);
width = 772;
},
{
anchors = (
{
name = bottom;
position = "{406, 0}";
},
{
name = bottom_alt;
position = "{132, 0}";
},
{
name = top;
position = "{406, 605}";
}
);
layerId = "7821FCCF-1A09-48AA-92A6-4648A23E0102";
paths = (
{
closed = 1;
nodes = (
"277 -4 OFFCURVE",
"324 31 OFFCURVE",
"324 187 CURVE SMOOTH",
"324 238 LINE",
"414 238 OFFCURVE",
"525 155 OFFCURVE",
"555 0 CURVE",
"747 0 LINE",
"747 553 LINE",
"65 553 LINE",
"65 432 LINE",
"555 432 LINE",
"555 343 LINE SMOOTH",
"555 298 OFFCURVE",
"559 264 OFFCURVE",
"563 244 CURVE",
"558 243 LINE",
"517 321 OFFCURVE",
"417 375 OFFCURVE",
"291 375 CURVE",
"130 375 LINE",
"130 202 LINE SMOOTH",
"130 138 OFFCURVE",
"107 117 OFFCURVE",
"65 117 CURVE",
"65 -4 LINE"
);
}
);
width = 812;
}
);
unicode = A90F;
},
{
glyphname = uniA910;
lastChange = "2019-10-26 14:09:28 +0000";
layers = (
{
anchors = (
{
name = bottom;
position = "{385, 0}";
},
{
name = bottom_alt;
position = "{175, -118}";
},
{
name = top;
position = "{385, 605}";
}
);
layerId = UUID0;
paths = (
{
closed = 1;
nodes = (
"174 -240 LINE",
"174 53 LINE SMOOTH",
"174 333 OFFCURVE",
"404 476 OFFCURVE",
"528 476 CURVE SMOOTH",
"576 476 OFFCURVE",
"598 443 OFFCURVE",
"598 407 CURVE SMOOTH",
"598 310 OFFCURVE",
"539 261 OFFCURVE",
"468 220 CURVE",
"569 69 LINE",
"407 69 LINE",
"407 0 LINE",
"684 0 LINE",
"684 13 LINE",
"550 212 LINE",
"576 224 OFFCURVE",
"684 302 OFFCURVE",
"684 410 CURVE SMOOTH",
"684 469 OFFCURVE",
"663 546 OFFCURVE",
"542 546 CURVE SMOOTH",
"417 546 OFFCURVE",
"311 473 OFFCURVE",
"233 391 CURVE SMOOTH",
"204 360 OFFCURVE",
"185 334 OFFCURVE",
"170 281 CURVE",
"165 282 LINE",
"168 299 OFFCURVE",
"174 334 OFFCURVE",
"174 391 CURVE SMOOTH",
"174 536 LINE",
"88 536 LINE",
"88 -240 LINE"
);
}
);
width = 772;
},
{
anchors = (
{
name = bottom;
position = "{406, 0}";
},
{
name = bottom_alt;
position = "{258, -118}";
},
{
name = top;
position = "{406, 605}";
}
);
background = {
paths = (
{
closed = 1;
nodes = (
"174 -240 LINE",
"174 53 LINE SMOOTH",
"174 333 OFFCURVE",
"404 476 OFFCURVE",
"528 476 CURVE SMOOTH",
"576 476 OFFCURVE",
"598 443 OFFCURVE",
"598 407 CURVE SMOOTH",
"598 310 OFFCURVE",
"539 261 OFFCURVE",
"468 220 CURVE",
"569 69 LINE",
"407 69 LINE",
"407 0 LINE",
"684 0 LINE",
"684 13 LINE",
"550 212 LINE",
"576 224 OFFCURVE",
"684 302 OFFCURVE",
"684 410 CURVE SMOOTH",
"684 469 OFFCURVE",
"663 546 OFFCURVE",
"542 546 CURVE SMOOTH",
"417 546 OFFCURVE",
"311 473 OFFCURVE",
"233 391 CURVE SMOOTH",
"204 360 OFFCURVE",
"185 334 OFFCURVE",
"170 281 CURVE",
"165 282 LINE",
"168 299 OFFCURVE",
"174 334 OFFCURVE",
"174 391 CURVE SMOOTH",
"174 536 LINE",
"88 536 LINE",
"88 -240 LINE"
);
}
);
};
layerId = "7821FCCF-1A09-48AA-92A6-4648A23E0102";
paths = (
{
closed = 1;
nodes = (
"257 -240 LINE",
"257 50 LINE SMOOTH",
"257 225 OFFCURVE",
"424 420 OFFCURVE",
"514 420 CURVE SMOOTH",
"552 420 OFFCURVE",
"562 397 OFFCURVE",
"562 366 CURVE SMOOTH",
"562 317 OFFCURVE",
"528 280 OFFCURVE",
"471 224 CURVE",
"544 115 LINE",
"398 115 LINE",
"398 0 LINE",
"747 0 LINE",
"747 23 LINE",
"615 209 LINE",
"672 251 OFFCURVE",
"747 325 OFFCURVE",
"747 420 CURVE SMOOTH",
"747 485 OFFCURVE",
"716 563 OFFCURVE",
"583 563 CURVE SMOOTH",
"467 563 OFFCURVE",
"398 514 OFFCURVE",
"338 462 CURVE SMOOTH",
"300 429 OFFCURVE",
"270 369 OFFCURVE",
"255 320 CURVE",
"250 321 LINE",
"253 338 OFFCURVE",
"257 363 OFFCURVE",
"257 420 CURVE SMOOTH",
"257 553 LINE",
"65 553 LINE",
"65 -240 LINE"
);
}
);
width = 812;
}
);
unicode = A910;
},
{
glyphname = uniA911;
lastChange = "2019-10-26 14:08:53 +0000";
layers = (
{
anchors = (
{
name = bottom;
position = "{385, 19}";
},
{
name = bottom_alt;
position = "{175, -220}";
},
{
name = top;
position = "{385, 605}";
}
);
background = {
paths = (
{
closed = 1;
nodes = (
"618 -10 OFFCURVE",
"684 49 OFFCURVE",
"684 272 CURVE SMOOTH",
"684 489 OFFCURVE",
"623 546 OFFCURVE",
"385 546 CURVE SMOOTH",
"187 546 OFFCURVE",
"88 512 OFFCURVE",
"88 331 CURVE",
"171 331 LINE",
"171 445 OFFCURVE",
"246 476 OFFCURVE",
"388 476 CURVE SMOOTH",
"569 476 OFFCURVE",
"595 436 OFFCURVE",
"595 272 CURVE SMOOTH",
"595 113 OFFCURVE",
"562 60 OFFCURVE",
"387 60 CURVE SMOOTH",
"227 60 OFFCURVE",
"172 95 OFFCURVE",
"172 208 CURVE",
"88 208 LINE",
"88 31 OFFCURVE",
"185 -10 OFFCURVE",
"390 -10 CURVE SMOOTH"
);
}
);
};
layerId = UUID0;
paths = (
{
closed = 1;
nodes = (
"613 -240 OFFCURVE",
"668 -211 OFFCURVE",
"668 -91 CURVE",
"580 -91 LINE",
"580 -157 OFFCURVE",
"541 -170 OFFCURVE",
"374 -170 CURVE SMOOTH",
"210 -170 OFFCURVE",
"178 -137 OFFCURVE",
"178 0 CURVE SMOOTH",
"178 14 OFFCURVE",
"177 27 OFFCURVE",
"174 44 CURVE",
"178 46 LINE",
"211 -3 OFFCURVE",
"252 -10 OFFCURVE",
"390 -10 CURVE SMOOTH",
"623 -10 OFFCURVE",
"684 57 OFFCURVE",
"684 272 CURVE SMOOTH",
"684 494 OFFCURVE",
"617 546 OFFCURVE",
"385 546 CURVE SMOOTH",
"187 546 OFFCURVE",
"89 505 OFFCURVE",
"89 329 CURVE",
"172 329 LINE",
"172 443 OFFCURVE",
"246 476 OFFCURVE",
"388 476 CURVE SMOOTH",
"557 476 OFFCURVE",
"595 436 OFFCURVE",
"595 272 CURVE SMOOTH",
"595 113 OFFCURVE",
"577 60 OFFCURVE",
"387 60 CURVE SMOOTH",
"226 60 OFFCURVE",
"174 91 OFFCURVE",
"174 206 CURVE",
"88 206 LINE",
"88 34 LINE SMOOTH",
"88 -188 OFFCURVE",
"125 -240 OFFCURVE",
"373 -240 CURVE SMOOTH"
);
}
);
width = 772;
},
{
anchors = (
{
name = bottom;
position = "{406, 19}";
},
{
name = bottom_alt;
position = "{259, -220}";
},
{
name = top;
position = "{406, 605}";
}
);
background = {
paths = (
{
closed = 1;
nodes = (
"666 -10 OFFCURVE",
"739 59 OFFCURVE",
"739 272 CURVE SMOOTH",
"739 489 OFFCURVE",
"671 562 OFFCURVE",
"408 562 CURVE SMOOTH",
"170 562 OFFCURVE",
"73 519 OFFCURVE",
"73 331 CURVE",
"255 331 LINE",
"255 412 OFFCURVE",
"301 436 OFFCURVE",
"401 436 CURVE SMOOTH",
"527 436 OFFCURVE",
"550 396 OFFCURVE",
"550 272 CURVE SMOOTH",
"550 169 OFFCURVE",
"520 116 OFFCURVE",
"400 116 CURVE SMOOTH",
"292 116 OFFCURVE",
"256 153 OFFCURVE",
"256 208 CURVE",
"73 208 LINE",
"73 33 OFFCURVE",
"168 -10 OFFCURVE",
"413 -10 CURVE SMOOTH"
);
}
);
};
layerId = "7821FCCF-1A09-48AA-92A6-4648A23E0102";
paths = (
{
closed = 1;
nodes = (
"682 -240 OFFCURVE",
"723 -201 OFFCURVE",
"723 -41 CURVE",
"557 -41 LINE",
"557 -99 OFFCURVE",
"540 -114 OFFCURVE",
"395 -114 CURVE SMOOTH",
"294 -114 OFFCURVE",
"260 -81 OFFCURVE",
"260 -20 CURVE SMOOTH",
"260 -6 OFFCURVE",
"259 7 OFFCURVE",
"256 24 CURVE",
"260 26 LINE",
"291 -1 OFFCURVE",
"333 -10 OFFCURVE",
"400 -10 CURVE SMOOTH",
"676 -10 OFFCURVE",
"747 57 OFFCURVE",
"747 272 CURVE SMOOTH",
"747 494 OFFCURVE",
"675 562 OFFCURVE",
"398 562 CURVE SMOOTH",
"164 562 OFFCURVE",
"66 505 OFFCURVE",
"66 329 CURVE",
"256 329 LINE",
"256 403 OFFCURVE",
"297 436 OFFCURVE",
"398 436 CURVE SMOOTH",
"527 436 OFFCURVE",
"550 396 OFFCURVE",
"550 282 CURVE SMOOTH",
"550 170 OFFCURVE",
"532 116 OFFCURVE",
"397 116 CURVE SMOOTH",
"297 116 OFFCURVE",
"258 148 OFFCURVE",
"258 206 CURVE",
"65 206 LINE",
"65 34 LINE SMOOTH",
"65 -188 OFFCURVE",
"102 -240 OFFCURVE",
"394 -240 CURVE SMOOTH"
);
}
);
width = 812;
}
);
unicode = A911;
},
{
glyphname = uniA912;
lastChange = "2019-10-26 14:07:57 +0000";
layers = (
{
anchors = (
{
name = bottom;
position = "{385, 0}";
},
{
name = bottom_alt;
position = "{175, 0}";
},
{
name = top;
position = "{385, 605}";
}
);
layerId = UUID0;
paths = (
{
closed = 1;
nodes = (
"637 -10 OFFCURVE",
"684 52 OFFCURVE",
"684 142 CURVE SMOOTH",
"684 242 OFFCURVE",
"608 336 OFFCURVE",
"450 336 CURVE SMOOTH",
"337 336 OFFCURVE",
"243 290 OFFCURVE",
"170 165 CURVE",
"165 166 LINE",
"168 183 OFFCURVE",
"174 218 OFFCURVE",
"174 275 CURVE SMOOTH",
"174 462 LINE",
"670 356 LINE",
"670 429 LINE",
"174 536 LINE",
"88 536 LINE",
"88 0 LINE",
"174 0 LINE",
"174 113 OFFCURVE",
"298 269 OFFCURVE",
"450 269 CURVE SMOOTH",
"501 269 OFFCURVE",
"553 254 OFFCURVE",
"582 217 CURVE",
"572 221 OFFCURVE",
"559 224 OFFCURVE",
"546 224 CURVE SMOOTH",
"459 224 OFFCURVE",
"415 176 OFFCURVE",
"415 107 CURVE SMOOTH",
"415 39 OFFCURVE",
"447 -10 OFFCURVE",
"548 -10 CURVE SMOOTH"
);
},
{
closed = 1;
nodes = (
"519 49 OFFCURVE",
"486 65 OFFCURVE",
"486 107 CURVE SMOOTH",
"486 147 OFFCURVE",
"516 165 OFFCURVE",
"547 165 CURVE SMOOTH",
"575 165 OFFCURVE",
"597 152 OFFCURVE",
"607 146 CURVE",
"607 140 OFFCURVE",
"608 134 OFFCURVE",
"608 127 CURVE SMOOTH",
"608 80 OFFCURVE",
"577 49 OFFCURVE",
"547 49 CURVE SMOOTH"
);
}
);
width = 772;
},
{
anchors = (
{
name = bottom;
position = "{406, 0}";
},
{
name = bottom_alt;
position = "{257, 0}";
},
{
name = top;
position = "{406, 605}";
}
);
background = {
paths = (
{
closed = 1;
nodes = (
"553 142 LINE SMOOTH",
"553 93 OFFCURVE",
"526 68 OFFCURVE",
"496 68 CURVE SMOOTH",
"458 68 OFFCURVE",
"443 87 OFFCURVE",
"443 120 CURVE SMOOTH",
"443 160 OFFCURVE",
"470 171 OFFCURVE",
"499 171 CURVE SMOOTH",
"533 171 OFFCURVE",
"560 153 OFFCURVE",
"567 148 CURVE",
"567 227 LINE",
"560 231 OFFCURVE",
"535 245 OFFCURVE",
"490 245 CURVE SMOOTH",
"404 245 OFFCURVE",
"360 196 OFFCURVE",
"360 119 CURVE SMOOTH",
"360 44 OFFCURVE",
"410 -10 OFFCURVE",
"521 -10 CURVE SMOOTH",
"662 -10 OFFCURVE",
"739 42 OFFCURVE",
"739 210 CURVE SMOOTH",
"739 563 LINE",
"592 563 LINE SMOOTH",
"522 563 OFFCURVE",
"412 536 OFFCURVE",
"335 467 CURVE SMOOTH",
"291 428 OFFCURVE",
"271 396 OFFCURVE",
"256 360 CURVE",
"251 361 LINE",
"254 373 OFFCURVE",
"257 401 OFFCURVE",
"257 458 CURVE SMOOTH",
"257 553 LINE",
"73 553 LINE",
"73 0 LINE",
"258 0 LINE",
"258 73 LINE SMOOTH",
"258 271 OFFCURVE",
"420 420 OFFCURVE",
"553 420 CURVE"
);
}
);
};
layerId = "7821FCCF-1A09-48AA-92A6-4648A23E0102";
paths = (
{
closed = 1;
nodes = (
"696 -10 OFFCURVE",
"747 70 OFFCURVE",
"747 160 CURVE SMOOTH",
"747 260 OFFCURVE",
"685 363 OFFCURVE",
"533 363 CURVE SMOOTH",
"410 363 OFFCURVE",
"323 326 OFFCURVE",
"254 241 CURVE",
"249 242 LINE",
"252 259 OFFCURVE",
"255 294 OFFCURVE",
"255 333 CURVE SMOOTH",
"255 437 LINE",
"733 361 LINE",
"733 476 LINE",
"255 553 LINE",
"65 553 LINE",
"65 0 LINE",
"255 0 LINE",
"255 88 OFFCURVE",
"359 261 OFFCURVE",
"513 261 CURVE SMOOTH",
"562 261 OFFCURVE",
"584 244 OFFCURVE",
"584 233 CURVE",
"571 237 OFFCURVE",
"548 240 OFFCURVE",
"532 240 CURVE SMOOTH",
"455 240 OFFCURVE",
"403 188 OFFCURVE",
"403 119 CURVE SMOOTH",
"403 41 OFFCURVE",
"449 -10 OFFCURVE",
"549 -10 CURVE SMOOTH"
);
},
{
closed = 1;
nodes = (
"504 68 OFFCURVE",
"483 81 OFFCURVE",
"483 119 CURVE SMOOTH",
"483 154 OFFCURVE",
"501 171 OFFCURVE",
"538 171 CURVE SMOOTH",
"563 171 OFFCURVE",
"581 160 OFFCURVE",
"590 152 CURVE",
"591 146 OFFCURVE",
"591 140 OFFCURVE",
"591 133 CURVE SMOOTH",
"591 102 OFFCURVE",
"570 68 OFFCURVE",
"536 68 CURVE SMOOTH"
);
}
);
width = 812;
}
);
unicode = A912;
},
{
glyphname = uniA913;
lastChange = "2019-10-26 14:07:00 +0000";
layers = (
{
anchors = (
{
name = bottom;
position = "{385, 0}";
},
{
name = bottom_alt;
position = "{175, 0}";
},
{
name = top;
position = "{385, 781}";
}
);
layerId = UUID0;
paths = (
{
closed = 1;
nodes = (
"628 -10 OFFCURVE",
"684 49 OFFCURVE",
"684 272 CURVE SMOOTH",
"684 714 LINE",
"598 714 LINE",
"598 272 LINE SMOOTH",
"598 107 OFFCURVE",
"563 60 OFFCURVE",
"385 60 CURVE SMOOTH",
"210 60 OFFCURVE",
"173 113 OFFCURVE",
"173 272 CURVE SMOOTH",
"173 536 LINE",
"88 536 LINE",
"88 272 LINE SMOOTH",
"88 49 OFFCURVE",
"154 -10 OFFCURVE",
"382 -10 CURVE"
);
},
{
closed = 1;
nodes = (
"642 467 LINE",
"643 481 OFFCURVE",
"643 496 OFFCURVE",
"643 509 CURVE",
"598 536 LINE",
"443 536 LINE",
"443 467 LINE"
);
}
);
width = 772;
},
{
anchors = (
{
name = bottom;
position = "{406, 0}";
},
{
name = bottom_alt;
position = "{256, 0}";
},
{
name = top;
position = "{406, 781}";
}
);
layerId = "7821FCCF-1A09-48AA-92A6-4648A23E0102";
paths = (
{
closed = 1;
nodes = (
"682 -10 OFFCURVE",
"747 50 OFFCURVE",
"747 273 CURVE SMOOTH",
"747 714 LINE",
"554 714 LINE",
"554 269 LINE SMOOTH",
"554 149 OFFCURVE",
"519 116 OFFCURVE",
"403 116 CURVE SMOOTH",
"295 116 OFFCURVE",
"258 155 OFFCURVE",
"258 265 CURVE SMOOTH",
"258 553 LINE",
"65 553 LINE",
"65 269 LINE SMOOTH",
"65 50 OFFCURVE",
"124 -10 OFFCURVE",
"399 -10 CURVE"
);
},
{
closed = 1;
nodes = (
"682 429 LINE",
"683 443 OFFCURVE",
"683 512 OFFCURVE",
"683 525 CURVE",
"565 553 LINE",
"405 553 LINE",
"405 429 LINE"
);
}
);
width = 812;
}
);
unicode = A913;
},
{
glyphname = uniA914;
lastChange = "2019-10-26 14:02:56 +0000";
layers = (
{
anchors = (
{
name = bottom;
position = "{385, 19}";
},
{
name = bottom_alt;
position = "{175, -220}";
},
{
name = top;
position = "{385, 605}";
}
);
layerId = UUID0;
paths = (
{
closed = 1;
nodes = (
"525 -240 LINE",
"525 -169 LINE",
"387 -169 LINE SMOOTH",
"223 -169 OFFCURVE",
"178 -137 OFFCURVE",
"178 -37 CURVE SMOOTH",
"178 11 OFFCURVE",
"174 23 OFFCURVE",
"163 51 CURVE",
"167 52 LINE",
"191 3 OFFCURVE",
"259 -10 OFFCURVE",
"383 -10 CURVE SMOOTH",
"623 -10 OFFCURVE",
"684 48 OFFCURVE",
"684 145 CURVE SMOOTH",
"684 235 OFFCURVE",
"656 278 OFFCURVE",
"498 304 CURVE SMOOTH",
"314 334 LINE SMOOTH",
"213 350 OFFCURVE",
"187 366 OFFCURVE",
"187 406 CURVE SMOOTH",
"187 438 OFFCURVE",
"208 475 OFFCURVE",
"384 475 CURVE SMOOTH",
"526 475 OFFCURVE",
"591 445 OFFCURVE",
"591 351 CURVE",
"674 351 LINE",
"674 509 OFFCURVE",
"585 546 OFFCURVE",
"387 546 CURVE SMOOTH",
"149 546 OFFCURVE",
"98 488 OFFCURVE",
"98 397 CURVE SMOOTH",
"98 331 OFFCURVE",
"116 290 OFFCURVE",
"251 267 CURVE SMOOTH",
"458 232 LINE SMOOTH",
"559 215 OFFCURVE",
"595 197 OFFCURVE",
"595 146 CURVE SMOOTH",
"595 95 OFFCURVE",
"570 60 OFFCURVE",
"387 60 CURVE SMOOTH",
"238 60 OFFCURVE",
"178 89 OFFCURVE",
"178 144 CURVE",
"257 144 LINE",
"257 213 LINE",
"88 213 LINE",
"88 34 LINE SMOOTH",
"88 -188 OFFCURVE",
"139 -240 OFFCURVE",
"387 -240 CURVE SMOOTH"
);
}
);
width = 772;
},
{
anchors = (
{
name = bottom;
position = "{406, 19}";
},
{
name = bottom_alt;
position = "{239, -220}";
},
{
name = top;
position = "{406, 605}";
}
);
layerId = "7821FCCF-1A09-48AA-92A6-4648A23E0102";
paths = (
{
closed = 1;
nodes = (
"540 -240 LINE",
"540 -111 LINE",
"412 -111 LINE SMOOTH",
"296 -111 OFFCURVE",
"241 -97 OFFCURVE",
"241 -27 CURVE SMOOTH",
"241 11 OFFCURVE",
"239 23 OFFCURVE",
"231 51 CURVE",
"235 52 LINE",
"258 3 OFFCURVE",
"324 -10 OFFCURVE",
"405 -10 CURVE SMOOTH",
"681 -10 OFFCURVE",
"747 50 OFFCURVE",
"747 155 CURVE SMOOTH",
"747 268 OFFCURVE",
"699 321 OFFCURVE",
"532 341 CURVE SMOOTH",
"349 363 LINE SMOOTH",
"283 371 OFFCURVE",
"268 381 OFFCURVE",
"268 402 CURVE SMOOTH",
"268 424 OFFCURVE",
"289 451 OFFCURVE",
"406 451 CURVE SMOOTH",
"481 451 OFFCURVE",
"546 431 OFFCURVE",
"546 367 CURVE",
"737 367 LINE",
"737 525 OFFCURVE",
"648 562 OFFCURVE",
"409 562 CURVE SMOOTH",
"136 562 OFFCURVE",
"75 499 OFFCURVE",
"75 399 CURVE SMOOTH",
"75 316 OFFCURVE",
"99 259 OFFCURVE",
"276 240 CURVE SMOOTH",
"473 219 LINE SMOOTH",
"534 213 OFFCURVE",
"559 193 OFFCURVE",
"559 156 CURVE SMOOTH",
"559 118 OFFCURVE",
"534 103 OFFCURVE",
"409 103 CURVE SMOOTH",
"323 103 OFFCURVE",
"242 119 OFFCURVE",
"242 140 CURVE",
"322 140 LINE",
"322 215 LINE",
"65 215 LINE",
"65 34 LINE SMOOTH",
"65 -198 OFFCURVE",
"114 -240 OFFCURVE",
"402 -240 CURVE SMOOTH"
);
}
);
width = 812;
}
);
unicode = A914;
},
{
glyphname = uniA915;
lastChange = "2019-10-26 14:03:27 +0000";
layers = (
{
anchors = (
{
name = bottom;
position = "{385, 0}";
},
{
name = bottom_alt;
position = "{175, 0}";
},
{
name = top;
position = "{385, 605}";
}
);
layerId = UUID0;
paths = (
{
closed = 1;
nodes = (
"587 -10 OFFCURVE",
"684 39 OFFCURVE",
"684 208 CURVE",
"600 208 LINE",
"600 93 OFFCURVE",
"545 60 OFFCURVE",
"385 60 CURVE SMOOTH",
"210 60 OFFCURVE",
"177 113 OFFCURVE",
"177 272 CURVE SMOOTH",
"177 436 OFFCURVE",
"203 475 OFFCURVE",
"384 475 CURVE SMOOTH",
"512 475 OFFCURVE",
"579 451 OFFCURVE",
"591 375 CURVE",
"151 304 LINE",
"163 233 LINE",
"684 318 LINE",
"679 503 OFFCURVE",
"597 546 OFFCURVE",
"387 546 CURVE SMOOTH",
"149 546 OFFCURVE",
"88 489 OFFCURVE",
"88 272 CURVE SMOOTH",
"88 49 OFFCURVE",
"154 -10 OFFCURVE",
"382 -10 CURVE SMOOTH"
);
}
);
width = 772;
},
{
anchors = (
{
name = bottom;
position = "{406, 0}";
},
{
name = bottom_alt;
position = "{260, 0}";
},
{
name = top;
position = "{406, 605}";
}
);
background = {
paths = (
{
closed = 1;
nodes = (
"640 -10 OFFCURVE",
"739 22 OFFCURVE",
"739 205 CURVE",
"552 205 LINE",
"552 144 OFFCURVE",
"488 116 OFFCURVE",
"412 116 CURVE SMOOTH",
"288 116 OFFCURVE",
"262 156 OFFCURVE",
"262 264 CURVE SMOOTH",
"262 383 OFFCURVE",
"295 436 OFFCURVE",
"413 436 CURVE SMOOTH",
"518 436 OFFCURVE",
"543 398 OFFCURVE",
"551 336 CURVE",
"179 336 LINE",
"179 237 LINE",
"738 237 LINE",
"739 261 OFFCURVE",
"739 288 OFFCURVE",
"739 301 CURVE SMOOTH",
"739 501 OFFCURVE",
"638 562 OFFCURVE",
"410 562 CURVE SMOOTH",
"139 562 OFFCURVE",
"73 484 OFFCURVE",
"73 264 CURVE SMOOTH",
"73 50 OFFCURVE",
"137 -10 OFFCURVE",
"415 -10 CURVE SMOOTH"
);
}
);
};
layerId = "7821FCCF-1A09-48AA-92A6-4648A23E0102";
paths = (
{
closed = 1;
nodes = (
"650 -10 OFFCURVE",
"747 39 OFFCURVE",
"747 208 CURVE",
"553 208 LINE",
"553 149 OFFCURVE",
"498 116 OFFCURVE",
"406 116 CURVE SMOOTH",
"296 116 OFFCURVE",
"263 159 OFFCURVE",
"263 272 CURVE SMOOTH",
"263 397 OFFCURVE",
"300 436 OFFCURVE",
"405 436 CURVE SMOOTH",
"486 436 OFFCURVE",
"537 414 OFFCURVE",
"543 369 CURVE",
"152 303 LINE",
"164 205 LINE",
"747 298 LINE",
"742 499 OFFCURVE",
"676 562 OFFCURVE",
"409 562 CURVE SMOOTH",
"126 562 OFFCURVE",
"65 485 OFFCURVE",
"65 272 CURVE SMOOTH",
"65 49 OFFCURVE",
"131 -10 OFFCURVE",
"403 -10 CURVE SMOOTH"
);
}
);
width = 812;
}
);
unicode = A915;
},
{
glyphname = uniA916;
lastChange = "2019-10-26 14:06:26 +0000";
layers = (
{
anchors = (
{
name = bottom;
position = "{385, 0}";
},
{
name = bottom_alt;
position = "{175, 0}";
},
{
name = top;
position = "{385, 781}";
}
);
layerId = UUID0;
paths = (
{
closed = 1;
nodes = (
"717 65 LINE",
"675 65 OFFCURVE",
"664 83 OFFCURVE",
"664 137 CURVE SMOOTH",
"664 515 LINE",
"585 515 LINE SMOOTH",
"452 515 OFFCURVE",
"326 460 OFFCURVE",
"233 361 CURVE SMOOTH",
"204 330 OFFCURVE",
"185 304 OFFCURVE",
"170 251 CURVE",
"165 252 LINE",
"168 269 OFFCURVE",
"174 304 OFFCURVE",
"174 361 CURVE SMOOTH",
"174 494 LINE SMOOTH",
"174 631 OFFCURVE",
"220 663 OFFCURVE",
"388 663 CURVE SMOOTH",
"535 663 OFFCURVE",
"572 648 OFFCURVE",
"572 595 CURVE",
"663 595 LINE",
"663 706 OFFCURVE",
"589 734 OFFCURVE",
"387 734 CURVE SMOOTH",
"139 734 OFFCURVE",
"88 682 OFFCURVE",
"88 460 CURVE SMOOTH",
"88 0 LINE",
"174 0 LINE",
"174 23 LINE SMOOTH",
"174 332 OFFCURVE",
"414 445 OFFCURVE",
"578 445 CURVE",
"578 124 LINE SMOOTH",
"578 31 OFFCURVE",
"593 -4 OFFCURVE",
"717 -4 CURVE"
);
}
);
width = 772;
},
{
anchors = (
{
name = bottom;
position = "{406, 0}";
},
{
name = bottom_alt;
position = "{260, 0}";
},
{
name = top;
position = "{406, 781}";
}
);
layerId = "7821FCCF-1A09-48AA-92A6-4648A23E0102";
paths = (
{
closed = 1;
nodes = (
"790 125 LINE",
"748 125 OFFCURVE",
"737 143 OFFCURVE",
"737 197 CURVE SMOOTH",
"737 515 LINE",
"592 515 LINE SMOOTH",
"489 515 OFFCURVE",
"385 473 OFFCURVE",
"316 401 CURVE SMOOTH",
"287 371 OFFCURVE",
"265 336 OFFCURVE",
"256 311 CURVE",
"251 312 LINE",
"254 329 OFFCURVE",
"257 364 OFFCURVE",
"257 421 CURVE SMOOTH",
"257 494 LINE SMOOTH",
"257 581 OFFCURVE",
"303 613 OFFCURVE",
"417 613 CURVE SMOOTH",
"502 613 OFFCURVE",
"539 598 OFFCURVE",
"539 565 CURVE",
"736 565 LINE",
"736 698 OFFCURVE",
"672 734 OFFCURVE",
"416 734 CURVE SMOOTH",
"116 734 OFFCURVE",
"65 682 OFFCURVE",
"65 460 CURVE SMOOTH",
"65 0 LINE",
"258 0 LINE",
"258 33 LINE SMOOTH",
"258 219 OFFCURVE",
"421 375 OFFCURVE",
"544 375 CURVE",
"544 164 LINE SMOOTH",
"544 31 OFFCURVE",
"596 -4 OFFCURVE",
"790 -4 CURVE"
);
}
);
width = 812;
}
);
unicode = A916;
},
{
glyphname = uniA917;
lastChange = "2019-10-26 14:16:47 +0000";
layers = (
{
anchors = (
{
name = bottom;
position = "{385, 0}";
},
{
name = bottom_alt;
position = "{175, 0}";
},
{
name = top;
position = "{385, 605}";
}
);
layerId = UUID0;
paths = (
{
closed = 1;
nodes = (
"628 -10 OFFCURVE",
"684 49 OFFCURVE",
"684 272 CURVE SMOOTH",
"684 536 LINE",
"598 536 LINE",
"598 272 LINE",
"598 107 OFFCURVE",
"563 60 OFFCURVE",
"385 60 CURVE SMOOTH",
"210 60 OFFCURVE",
"174 113 OFFCURVE",
"174 272 CURVE SMOOTH",
"174 536 LINE",
"88 536 LINE",
"88 272 LINE",
"88 49 OFFCURVE",
"154 -10 OFFCURVE",
"382 -10 CURVE SMOOTH"
);
},
{
closed = 1;
nodes = (
"383 266 LINE",
"600 106 LINE",
"600 198 LINE",
"383 358 LINE",
"174 198 LINE",
"174 106 LINE"
);
}
);
width = 772;
},
{
anchors = (
{
name = bottom;
position = "{406, 0}";
},
{
name = bottom_alt;
position = "{256, 0}";
},
{
name = top;
position = "{406, 605}";
}
);
layerId = "7821FCCF-1A09-48AA-92A6-4648A23E0102";
paths = (
{
closed = 1;
nodes = (
"680 -10 OFFCURVE",
"747 49 OFFCURVE",
"747 272 CURVE SMOOTH",
"747 553 LINE",
"556 553 LINE",
"556 272 LINE SMOOTH",
"556 149 OFFCURVE",
"521 116 OFFCURVE",
"405 116 CURVE SMOOTH",
"291 116 OFFCURVE",
"256 153 OFFCURVE",
"256 272 CURVE SMOOTH",
"256 553 LINE",
"65 553 LINE",
"65 272 LINE SMOOTH",
"65 49 OFFCURVE",
"124 -10 OFFCURVE",
"402 -10 CURVE SMOOTH"
);
},
{
closed = 1;
nodes = (
"403 276 LINE",
"620 116 LINE",
"620 241 LINE",
"403 401 LINE",
"194 241 LINE",
"194 116 LINE"
);
}
);
width = 812;
}
);
unicode = A917;
},
{
glyphname = uniA918;
lastChange = "2019-10-26 14:17:48 +0000";
layers = (
{
anchors = (
{
name = bottom;
position = "{385, 0}";
},
{
name = bottom_alt;
position = "{175, 0}";
},
{
name = top;
position = "{385, 605}";
}
);
layerId = UUID0;
paths = (
{
closed = 1;
nodes = (
"539 0 LINE SMOOTH",
"629 0 OFFCURVE",
"684 24 OFFCURVE",
"684 131 CURVE SMOOTH",
"684 259 LINE",
"632 259 LINE SMOOTH",
"482 259 OFFCURVE",
"361 162 OFFCURVE",
"278 69 CURVE",
"187 69 LINE",
"654 523 LINE",
"654 536 LINE",
"108 536 LINE",
"108 464 LINE",
"485 464 LINE",
"88 76 LINE",
"88 0 LINE"
);
},
{
closed = 1;
nodes = (
"430 119 OFFCURVE",
"499 180 OFFCURVE",
"598 184 CURVE",
"598 124 LINE SMOOTH",
"598 99 OFFCURVE",
"586 69 OFFCURVE",
"541 69 CURVE SMOOTH",
"372 69 LINE"
);
}
);
width = 772;
},
{
anchors = (
{
name = bottom;
position = "{406, 0}";
},
{
name = bottom_alt;
position = "{263, 0}";
},
{
name = top;
position = "{406, 605}";
}
);
layerId = "7821FCCF-1A09-48AA-92A6-4648A23E0102";
paths = (
{
closed = 1;
nodes = (
"592 0 LINE SMOOTH",
"692 0 OFFCURVE",
"747 45 OFFCURVE",
"747 162 CURVE SMOOTH",
"747 333 LINE",
"687 333 LINE SMOOTH",
"528 333 OFFCURVE",
"415 226 OFFCURVE",
"333 129 CURVE",
"258 129 LINE",
"717 520 LINE",
"717 553 LINE",
"85 553 LINE",
"85 421 LINE",
"396 421 LINE",
"65 133 LINE",
"65 0 LINE"
);
},
{
closed = 1;
nodes = (
"521 179 OFFCURVE",
"564 214 OFFCURVE",
"631 218 CURVE",
"631 184 LINE SMOOTH",
"631 159 OFFCURVE",
"619 129 OFFCURVE",
"586 129 CURVE SMOOTH",
"467 129 LINE"
);
}
);
width = 812;
}
);
unicode = A918;
},
{
glyphname = uniA919;
lastChange = "2019-10-26 19:03:09 +0000";
layers = (
{
anchors = (
{
name = bottom;
position = "{385, 0}";
},
{
name = bottom_alt;
position = "{175, 0}";
},
{
name = top;
position = "{385, 605}";
}
);
layerId = UUID0;
paths = (
{
closed = 1;
nodes = (
"637 -10 OFFCURVE",
"684 42 OFFCURVE",
"684 152 CURVE SMOOTH",
"684 546 LINE",
"607 546 LINE SMOOTH",
"474 546 OFFCURVE",
"326 490 OFFCURVE",
"233 391 CURVE SMOOTH",
"204 360 OFFCURVE",
"185 334 OFFCURVE",
"170 281 CURVE",
"165 282 LINE",
"168 299 OFFCURVE",
"174 334 OFFCURVE",
"174 391 CURVE SMOOTH",
"174 536 LINE",
"88 536 LINE",
"88 0 LINE",
"174 0 LINE",
"174 53 LINE SMOOTH",
"174 362 OFFCURVE",
"434 479 OFFCURVE",
"598 479 CURVE",
"598 137 LINE SMOOTH",
"598 72 OFFCURVE",
"577 49 OFFCURVE",
"547 49 CURVE SMOOTH",
"519 49 OFFCURVE",
"486 65 OFFCURVE",
"486 107 CURVE SMOOTH",
"486 147 OFFCURVE",
"516 165 OFFCURVE",
"547 165 CURVE SMOOTH",
"583 165 OFFCURVE",
"605 149 OFFCURVE",
"612 145 CURVE",
"612 206 LINE",
"605 210 OFFCURVE",
"580 224 OFFCURVE",
"546 224 CURVE SMOOTH",
"448 224 OFFCURVE",
"415 176 OFFCURVE",
"415 107 CURVE SMOOTH",
"415 39 OFFCURVE",
"447 -10 OFFCURVE",
"548 -10 CURVE SMOOTH"
);
}
);
width = 772;
},
{
anchors = (
{
name = bottom;
position = "{406, 0}";
},
{
name = bottom_alt;
position = "{260, 0}";
},
{
name = top;
position = "{406, 605}";
}
);
background = {
paths = (
{
closed = 1;
nodes = (
"676 -10 OFFCURVE",
"739 55 OFFCURVE",
"739 212 CURVE SMOOTH",
"739 563 LINE",
"562 563 LINE",
"259 363 LINE",
"259 553 LINE",
"73 553 LINE",
"73 0 LINE",
"259 0 LINE",
"259 210 LINE",
"553 404 LINE",
"553 233 LINE",
"541 238 OFFCURVE",
"521 245 OFFCURVE",
"491 245 CURVE SMOOTH",
"403 245 OFFCURVE",
"360 196 OFFCURVE",
"360 117 CURVE SMOOTH",
"360 42 OFFCURVE",
"413 -10 OFFCURVE",
"521 -10 CURVE SMOOTH"
);
},
{
closed = 1;
nodes = (
"461 68 OFFCURVE",
"443 84 OFFCURVE",
"443 120 CURVE SMOOTH",
"443 153 OFFCURVE",
"463 171 OFFCURVE",
"497 171 CURVE SMOOTH",
"523 171 OFFCURVE",
"541 162 OFFCURVE",
"553 157 CURVE",
"553 143 LINE SMOOTH",
"553 97 OFFCURVE",
"530 68 OFFCURVE",
"495 68 CURVE SMOOTH"
);
}
);
};
layerId = "7821FCCF-1A09-48AA-92A6-4648A23E0102";
paths = (
{
closed = 1;
nodes = (
"670 -10 OFFCURVE",
"747 42 OFFCURVE",
"747 210 CURVE SMOOTH",
"747 563 LINE",
"592 563 LINE SMOOTH",
"522 563 OFFCURVE",
"412 536 OFFCURVE",
"335 467 CURVE SMOOTH",
"291 428 OFFCURVE",
"271 396 OFFCURVE",
"256 360 CURVE",
"251 361 LINE",
"254 373 OFFCURVE",
"257 401 OFFCURVE",
"257 458 CURVE SMOOTH",
"257 553 LINE",
"65 553 LINE",
"65 0 LINE",
"258 0 LINE",
"258 73 LINE SMOOTH",
"258 271 OFFCURVE",
"420 420 OFFCURVE",
"553 420 CURVE",
"553 142 LINE SMOOTH",
"553 93 OFFCURVE",
"526 68 OFFCURVE",
"496 68 CURVE SMOOTH",
"458 68 OFFCURVE",
"443 87 OFFCURVE",
"443 120 CURVE SMOOTH",
"443 160 OFFCURVE",
"470 171 OFFCURVE",
"499 171 CURVE SMOOTH",
"533 171 OFFCURVE",
"560 153 OFFCURVE",
"567 148 CURVE",
"567 227 LINE",
"560 231 OFFCURVE",
"535 245 OFFCURVE",
"490 245 CURVE SMOOTH",
"404 245 OFFCURVE",
"360 196 OFFCURVE",
"360 119 CURVE SMOOTH",
"360 44 OFFCURVE",
"410 -10 OFFCURVE",
"521 -10 CURVE SMOOTH"
);
}
);
width = 812;
}
);
unicode = A919;
},
{
glyphname = uniA91A;
lastChange = "2019-10-26 14:18:21 +0000";
layers = (
{
anchors = (
{
name = bottom;
position = "{385, 0}";
},
{
name = bottom_alt;
position = "{175, -10}";
},
{
name = top;
position = "{385, 605}";
}
);
layerId = UUID0;
paths = (
{
closed = 1;
nodes = (
"520 -240 LINE SMOOTH",
"637 -240 OFFCURVE",
"684 -175 OFFCURVE",
"684 -65 CURVE SMOOTH",
"684 546 LINE",
"607 546 LINE SMOOTH",
"474 546 OFFCURVE",
"325 490 OFFCURVE",
"232 391 CURVE SMOOTH",
"203 360 OFFCURVE",
"184 334 OFFCURVE",
"169 281 CURVE",
"164 282 LINE",
"167 299 OFFCURVE",
"173 334 OFFCURVE",
"173 391 CURVE SMOOTH",
"173 536 LINE",
"88 536 LINE",
"88 0 LINE",
"173 0 LINE",
"173 53 LINE SMOOTH",
"173 362 OFFCURVE",
"434 479 OFFCURVE",
"598 479 CURVE",
"598 -83 LINE SMOOTH",
"598 -148 OFFCURVE",
"562 -171 OFFCURVE",
"527 -171 CURVE SMOOTH",
"494 -171 LINE",
"494 -240 LINE"
);
}
);
width = 772;
},
{
anchors = (
{
name = bottom;
position = "{406, 0}";
},
{
name = bottom_alt;
position = "{260, -10}";
},
{
name = top;
position = "{406, 605}";
}
);
background = {
paths = (
{
closed = 1;
nodes = (
"565 -240 LINE SMOOTH",
"682 -240 OFFCURVE",
"729 -175 OFFCURVE",
"729 -65 CURVE SMOOTH",
"729 546 LINE",
"652 546 LINE SMOOTH",
"519 546 OFFCURVE",
"370 490 OFFCURVE",
"277 391 CURVE SMOOTH",
"248 360 OFFCURVE",
"229 334 OFFCURVE",
"214 281 CURVE",
"209 282 LINE",
"212 299 OFFCURVE",
"218 334 OFFCURVE",
"218 391 CURVE SMOOTH",
"218 536 LINE",
"133 536 LINE",
"133 0 LINE",
"218 0 LINE",
"218 53 LINE SMOOTH",
"218 362 OFFCURVE",
"479 479 OFFCURVE",
"643 479 CURVE",
"643 -83 LINE SMOOTH",
"643 -148 OFFCURVE",
"607 -171 OFFCURVE",
"572 -171 CURVE SMOOTH",
"539 -171 LINE",
"539 -240 LINE"
);
}
);
};
layerId = "7821FCCF-1A09-48AA-92A6-4648A23E0102";
paths = (
{
closed = 1;
nodes = (
"525 -240 LINE SMOOTH",
"680 -240 OFFCURVE",
"747 -175 OFFCURVE",
"747 -35 CURVE SMOOTH",
"747 563 LINE",
"592 563 LINE SMOOTH",
"522 563 OFFCURVE",
"412 536 OFFCURVE",
"335 467 CURVE SMOOTH",
"291 428 OFFCURVE",
"271 396 OFFCURVE",
"256 360 CURVE",
"251 361 LINE",
"254 373 OFFCURVE",
"257 401 OFFCURVE",
"257 458 CURVE SMOOTH",
"257 553 LINE",
"65 553 LINE",
"65 0 LINE",
"258 0 LINE",
"258 73 LINE SMOOTH",
"258 271 OFFCURVE",
"420 420 OFFCURVE",
"554 420 CURVE",
"554 -3 LINE SMOOTH",
"554 -68 OFFCURVE",
"537 -91 OFFCURVE",
"482 -91 CURVE SMOOTH",
"444 -91 LINE",
"444 -240 LINE"
);
}
);
width = 812;
}
);
unicode = A91A;
},
{
glyphname = uniA91B;
lastChange = "2019-10-26 14:18:59 +0000";
layers = (
{
anchors = (
{
name = bottom;
position = "{385, 0}";
},
{
name = bottom_alt;
position = "{175, 0}";
},
{
name = top;
position = "{385, 605}";
}
);
layerId = UUID0;
paths = (
{
closed = 1;
nodes = (
"385 -10 OFFCURVE",
"448 36 OFFCURVE",
"448 160 CURVE SMOOTH",
"448 375 LINE SMOOTH",
"448 448 OFFCURVE",
"488 474 OFFCURVE",
"541 474 CURVE SMOOTH",
"603 474 OFFCURVE",
"635 449 OFFCURVE",
"635 282 CURVE SMOOTH",
"635 0 LINE",
"724 0 LINE",
"724 282 LINE SMOOTH",
"724 494 OFFCURVE",
"682 545 OFFCURVE",
"542 545 CURVE SMOOTH",
"424 545 OFFCURVE",
"363 499 OFFCURVE",
"363 375 CURVE SMOOTH",
"363 160 LINE SMOOTH",
"363 87 OFFCURVE",
"321 61 OFFCURVE",
"274 61 CURVE SMOOTH",
"206 61 OFFCURVE",
"177 84 OFFCURVE",
"177 253 CURVE SMOOTH",
"177 535 LINE",
"88 535 LINE",
"88 253 LINE SMOOTH",
"88 41 OFFCURVE",
"127 -10 OFFCURVE",
"267 -10 CURVE SMOOTH"
);
}
);
width = 812;
},
{
anchors = (
{
name = bottom;
position = "{406, 0}";
},
{
name = bottom_alt;
position = "{250, 0}";
},
{
name = top;
position = "{406, 605}";
}
);
layerId = "7821FCCF-1A09-48AA-92A6-4648A23E0102";
paths = (
{
closed = 1;
nodes = (
"437 -10 OFFCURVE",
"502 36 OFFCURVE",
"502 200 CURVE SMOOTH",
"502 323 LINE SMOOTH",
"502 410 OFFCURVE",
"515 436 OFFCURVE",
"547 436 CURVE SMOOTH",
"578 436 OFFCURVE",
"600 411 OFFCURVE",
"600 250 CURVE SMOOTH",
"600 0 LINE",
"787 0 LINE",
"787 290 LINE SMOOTH",
"787 512 OFFCURVE",
"735 563 OFFCURVE",
"563 563 CURVE SMOOTH",
"411 563 OFFCURVE",
"349 517 OFFCURVE",
"349 363 CURVE SMOOTH",
"349 240 LINE SMOOTH",
"349 142 OFFCURVE",
"338 116 OFFCURVE",
"305 116 CURVE SMOOTH",
"272 116 OFFCURVE",
"252 139 OFFCURVE",
"252 303 CURVE SMOOTH",
"252 553 LINE",
"65 553 LINE",
"65 263 LINE SMOOTH",
"65 41 OFFCURVE",
"114 -10 OFFCURVE",
"291 -10 CURVE SMOOTH"
);
}
);
width = 852;
}
);
unicode = A91B;
},
{
glyphname = uniA91C;
lastChange = "2019-10-26 14:19:15 +0000";
layers = (
{
anchors = (
{
name = bottom;
position = "{385, 19}";
},
{
name = bottom_alt;
position = "{175, -220}";
},
{
name = top;
position = "{385, 605}";
}
);
layerId = UUID0;
paths = (
{
closed = 1;
nodes = (
"653 -240 OFFCURVE",
"724 -188 OFFCURVE",
"724 34 CURVE SMOOTH",
"724 535 LINE",
"635 535 LINE",
"635 253 LINE SMOOTH",
"635 77 OFFCURVE",
"602 61 OFFCURVE",
"534 61 CURVE SMOOTH",
"487 61 OFFCURVE",
"449 87 OFFCURVE",
"449 160 CURVE SMOOTH",
"449 375 LINE SMOOTH",
"449 499 OFFCURVE",
"392 545 OFFCURVE",
"274 545 CURVE SMOOTH",
"134 545 OFFCURVE",
"88 494 OFFCURVE",
"88 282 CURVE SMOOTH",
"88 0 LINE",
"177 0 LINE",
"177 282 LINE SMOOTH",
"177 458 OFFCURVE",
"213 474 OFFCURVE",
"275 474 CURVE SMOOTH",
"328 474 OFFCURVE",
"364 448 OFFCURVE",
"364 375 CURVE SMOOTH",
"364 160 LINE SMOOTH",
"364 36 OFFCURVE",
"423 -10 OFFCURVE",
"541 -10 CURVE SMOOTH",
"584 -10 OFFCURVE",
"614 3 OFFCURVE",
"634 46 CURVE",
"638 44 LINE",
"635 27 OFFCURVE",
"634 14 OFFCURVE",
"634 -10 CURVE SMOOTH",
"634 -137 OFFCURVE",
"572 -166 OFFCURVE",
"404 -166 CURVE SMOOTH",
"237 -166 OFFCURVE",
"181 -156 OFFCURVE",
"181 -91 CURVE",
"90 -91 LINE",
"90 -213 OFFCURVE",
"153 -240 OFFCURVE",
"405 -240 CURVE SMOOTH"
);
}
);
width = 812;
},
{
anchors = (
{
name = bottom;
position = "{406, 19}";
},
{
name = bottom_alt;
position = "{254, -220}";
},
{
name = top;
position = "{406, 605}";
}
);
layerId = "7821FCCF-1A09-48AA-92A6-4648A23E0102";
paths = (
{
closed = 1;
nodes = (
"691 -240 OFFCURVE",
"787 -188 OFFCURVE",
"787 34 CURVE SMOOTH",
"787 553 LINE",
"600 553 LINE",
"600 299 LINE SMOOTH",
"600 134 OFFCURVE",
"579 116 OFFCURVE",
"545 116 CURVE SMOOTH",
"508 116 OFFCURVE",
"508 174 OFFCURVE",
"508 260 CURVE SMOOTH",
"508 355 LINE SMOOTH",
"508 503 OFFCURVE",
"460 563 OFFCURVE",
"293 563 CURVE SMOOTH",
"116 563 OFFCURVE",
"65 504 OFFCURVE",
"65 282 CURVE SMOOTH",
"65 0 LINE",
"252 0 LINE",
"252 260 LINE SMOOTH",
"252 415 OFFCURVE",
"274 437 OFFCURVE",
"307 437 CURVE SMOOTH",
"335 437 OFFCURVE",
"350 411 OFFCURVE",
"350 326 CURVE SMOOTH",
"350 190 LINE SMOOTH",
"350 23 OFFCURVE",
"428 -10 OFFCURVE",
"513 -10 CURVE SMOOTH",
"565 -10 OFFCURVE",
"592 14 OFFCURVE",
"604 41 CURVE",
"608 39 LINE",
"605 22 OFFCURVE",
"604 8 OFFCURVE",
"604 -10 CURVE SMOOTH",
"604 -105 OFFCURVE",
"540 -118 OFFCURVE",
"414 -118 CURVE SMOOTH",
"312 -118 OFFCURVE",
"256 -111 OFFCURVE",
"256 -61 CURVE",
"67 -61 LINE",
"67 -213 OFFCURVE",
"130 -240 OFFCURVE",
"415 -240 CURVE SMOOTH"
);
}
);
width = 852;
}
);
unicode = A91C;
},
{
glyphname = uniA91D;
lastChange = "2019-10-26 14:19:42 +0000";
layers = (
{
anchors = (
{
name = bottom;
position = "{385, 0}";
},
{
name = bottom_alt;
position = "{175, 0}";
},
{
name = top;
position = "{385, 781}";
}
);
layerId = UUID0;
paths = (
{
closed = 1;
nodes = (
"628 -10 OFFCURVE",
"684 49 OFFCURVE",
"684 272 CURVE SMOOTH",
"684 536 LINE",
"598 536 LINE",
"598 272 LINE SMOOTH",
"598 107 OFFCURVE",
"563 60 OFFCURVE",
"385 60 CURVE SMOOTH",
"210 60 OFFCURVE",
"174 113 OFFCURVE",
"174 272 CURVE SMOOTH",
"174 714 LINE",
"88 714 LINE",
"88 272 LINE SMOOTH",
"88 49 OFFCURVE",
"154 -10 OFFCURVE",
"382 -10 CURVE"
);
},
{
closed = 1;
nodes = (
"329 466 LINE",
"329 536 LINE",
"174 536 LINE",
"131 509 LINE",
"131 496 OFFCURVE",
"131 480 OFFCURVE",
"132 466 CURVE"
);
}
);
width = 772;
},
{
anchors = (
{
name = bottom;
position = "{406, 0}";
},
{
name = bottom_alt;
position = "{259, 0}";
},
{
name = top;
position = "{406, 781}";
}
);
layerId = "7821FCCF-1A09-48AA-92A6-4648A23E0102";
paths = (
{
closed = 1;
nodes = (
"688 -10 OFFCURVE",
"747 50 OFFCURVE",
"747 269 CURVE SMOOTH",
"747 553 LINE",
"554 553 LINE",
"554 265 LINE SMOOTH",
"554 155 OFFCURVE",
"517 116 OFFCURVE",
"409 116 CURVE SMOOTH",
"293 116 OFFCURVE",
"258 149 OFFCURVE",
"258 269 CURVE SMOOTH",
"258 714 LINE",
"65 714 LINE",
"65 273 LINE SMOOTH",
"65 50 OFFCURVE",
"130 -10 OFFCURVE",
"413 -10 CURVE"
);
},
{
closed = 1;
nodes = (
"407 429 LINE",
"407 553 LINE",
"247 553 LINE",
"129 525 LINE",
"129 512 OFFCURVE",
"129 443 OFFCURVE",
"130 429 CURVE"
);
}
);
width = 812;
}
);
unicode = A91D;
},
{
glyphname = uniA91E;
lastChange = "2019-10-26 14:21:12 +0000";
layers = (
{
anchors = (
{
name = bottom;
position = "{385, 19}";
},
{
name = bottom_alt;
position = "{175, -220}";
},
{
name = top;
position = "{385, 605}";
}
);
layerId = UUID0;
paths = (
{
closed = 1;
nodes = (
"633 -240 OFFCURVE",
"684 -188 OFFCURVE",
"684 34 CURVE SMOOTH",
"684 208 LINE",
"598 208 LINE",
"598 95 OFFCURVE",
"545 60 OFFCURVE",
"385 60 CURVE SMOOTH",
"210 60 OFFCURVE",
"177 113 OFFCURVE",
"177 272 CURVE SMOOTH",
"177 436 OFFCURVE",
"203 476 OFFCURVE",
"384 476 CURVE SMOOTH",
"526 476 OFFCURVE",
"600 445 OFFCURVE",
"600 331 CURVE",
"683 331 LINE",
"683 509 OFFCURVE",
"585 546 OFFCURVE",
"387 546 CURVE SMOOTH",
"139 546 OFFCURVE",
"88 494 OFFCURVE",
"88 272 CURVE SMOOTH",
"88 49 OFFCURVE",
"154 -10 OFFCURVE",
"382 -10 CURVE SMOOTH",
"520 -10 OFFCURVE",
"561 -3 OFFCURVE",
"594 46 CURVE",
"598 44 LINE",
"595 27 OFFCURVE",
"594 14 OFFCURVE",
"594 0 CURVE SMOOTH",
"594 -137 OFFCURVE",
"552 -170 OFFCURVE",
"384 -170 CURVE SMOOTH",
"217 -170 OFFCURVE",
"188 -153 OFFCURVE",
"188 -91 CURVE",
"100 -91 LINE",
"100 -211 OFFCURVE",
"133 -240 OFFCURVE",
"385 -240 CURVE SMOOTH"
);
}
);
width = 772;
},
{
anchors = (
{
name = bottom;
position = "{406, 19}";
},
{
name = bottom_alt;
position = "{240, -220}";
},
{
name = top;
position = "{406, 605}";
}
);
background = {
paths = (
{
closed = 1;
nodes = (
"633 -240 OFFCURVE",
"684 -188 OFFCURVE",
"684 34 CURVE SMOOTH",
"684 208 LINE",
"598 208 LINE",
"598 95 OFFCURVE",
"545 60 OFFCURVE",
"385 60 CURVE SMOOTH",
"210 60 OFFCURVE",
"177 113 OFFCURVE",
"177 272 CURVE SMOOTH",
"177 436 OFFCURVE",
"203 476 OFFCURVE",
"384 476 CURVE SMOOTH",
"526 476 OFFCURVE",
"600 445 OFFCURVE",
"600 331 CURVE",
"683 331 LINE",
"683 509 OFFCURVE",
"585 546 OFFCURVE",
"387 546 CURVE SMOOTH",
"139 546 OFFCURVE",
"88 494 OFFCURVE",
"88 272 CURVE SMOOTH",
"88 49 OFFCURVE",
"154 -10 OFFCURVE",
"382 -10 CURVE SMOOTH",
"520 -10 OFFCURVE",
"561 -3 OFFCURVE",
"594 46 CURVE",
"598 44 LINE",
"595 27 OFFCURVE",
"594 14 OFFCURVE",
"594 0 CURVE SMOOTH",
"594 -137 OFFCURVE",
"552 -170 OFFCURVE",
"384 -170 CURVE SMOOTH",
"217 -170 OFFCURVE",
"188 -153 OFFCURVE",
"188 -91 CURVE",
"100 -91 LINE",
"100 -211 OFFCURVE",
"133 -240 OFFCURVE",
"385 -240 CURVE SMOOTH"
);
}
);
};
layerId = "7821FCCF-1A09-48AA-92A6-4648A23E0102";
paths = (
{
closed = 1;
nodes = (
"710 -240 OFFCURVE",
"747 -178 OFFCURVE",
"747 34 CURVE SMOOTH",
"747 210 LINE",
"554 210 LINE",
"554 148 OFFCURVE",
"515 116 OFFCURVE",
"405 116 CURVE SMOOTH",
"280 116 OFFCURVE",
"262 170 OFFCURVE",
"262 282 CURVE SMOOTH",
"262 396 OFFCURVE",
"285 436 OFFCURVE",
"404 436 CURVE SMOOTH",
"515 436 OFFCURVE",
"556 403 OFFCURVE",
"556 333 CURVE",
"746 333 LINE",
"746 505 OFFCURVE",
"648 562 OFFCURVE",
"404 562 CURVE SMOOTH",
"137 562 OFFCURVE",
"65 494 OFFCURVE",
"65 272 CURVE SMOOTH",
"65 57 OFFCURVE",
"136 -10 OFFCURVE",
"402 -10 CURVE SMOOTH",
"479 -10 OFFCURVE",
"521 -1 OFFCURVE",
"552 26 CURVE",
"556 24 LINE",
"554 7 OFFCURVE",
"554 -6 OFFCURVE",
"554 -20 CURVE SMOOTH",
"554 -86 OFFCURVE",
"518 -114 OFFCURVE",
"407 -114 CURVE SMOOTH",
"262 -114 OFFCURVE",
"245 -99 OFFCURVE",
"245 -41 CURVE",
"79 -41 LINE",
"79 -201 OFFCURVE",
"120 -240 OFFCURVE",
"408 -240 CURVE SMOOTH"
);
}
);
width = 812;
}
);
unicode = A91E;
},
{
glyphname = uniA91F;
lastChange = "2019-10-26 14:21:42 +0000";
layers = (
{
anchors = (
{
name = bottom;
position = "{385, 0}";
},
{
name = bottom_alt;
position = "{175, -10}";
},
{
name = top;
position = "{385, 605}";
}
);
layerId = UUID0;
paths = (
{
closed = 1;
nodes = (
"520 -240 LINE SMOOTH",
"637 -240 OFFCURVE",
"684 -175 OFFCURVE",
"684 -65 CURVE SMOOTH",
"684 536 LINE",
"598 536 LINE",
"598 483 LINE SMOOTH",
"598 174 OFFCURVE",
"338 69 OFFCURVE",
"174 69 CURVE",
"174 130 LINE",
"267 213 OFFCURVE",
"349 335 OFFCURVE",
"349 485 CURVE SMOOTH",
"349 536 LINE",
"232 536 LINE SMOOTH",
"125 536 OFFCURVE",
"88 481 OFFCURVE",
"88 391 CURVE SMOOTH",
"88 -1 LINE",
"167 -1 LINE SMOOTH",
"300 -1 OFFCURVE",
"446 46 OFFCURVE",
"539 145 CURVE SMOOTH",
"568 176 OFFCURVE",
"587 202 OFFCURVE",
"602 255 CURVE",
"607 254 LINE",
"604 237 OFFCURVE",
"598 202 OFFCURVE",
"598 145 CURVE SMOOTH",
"598 -83 LINE SMOOTH",
"598 -148 OFFCURVE",
"562 -171 OFFCURVE",
"527 -171 CURVE SMOOTH",
"494 -171 LINE",
"494 -240 LINE"
);
},
{
closed = 1;
nodes = (
"174 406 LINE SMOOTH",
"174 451 OFFCURVE",
"200 467 OFFCURVE",
"225 467 CURVE SMOOTH",
"272 467 LINE",
"268 368 OFFCURVE",
"224 281 OFFCURVE",
"174 223 CURVE"
);
}
);
width = 772;
},
{
anchors = (
{
name = bottom;
position = "{401, 0}";
},
{
name = bottom_alt;
position = "{242, -10}";
},
{
name = top;
position = "{406, 605}";
}
);
layerId = "7821FCCF-1A09-48AA-92A6-4648A23E0102";
paths = (
{
closed = 1;
nodes = (
"526 -240 LINE SMOOTH",
"681 -240 OFFCURVE",
"747 -175 OFFCURVE",
"747 -35 CURVE SMOOTH",
"747 553 LINE",
"554 553 LINE",
"554 480 LINE SMOOTH",
"554 282 OFFCURVE",
"392 137 OFFCURVE",
"240 135 CURVE",
"240 152 LINE",
"353 225 OFFCURVE",
"445 352 OFFCURVE",
"445 502 CURVE SMOOTH",
"445 553 LINE",
"258 553 LINE SMOOTH",
"112 553 OFFCURVE",
"65 498 OFFCURVE",
"65 374 CURVE SMOOTH",
"65 -1 LINE",
"183 -1 LINE SMOOTH",
"300 -1 OFFCURVE",
"390 20 OFFCURVE",
"471 84 CURVE SMOOTH",
"511 116 OFFCURVE",
"543 157 OFFCURVE",
"555 185 CURVE",
"560 184 LINE",
"558 170 OFFCURVE",
"555 142 OFFCURVE",
"555 95 CURVE SMOOTH",
"555 -3 LINE SMOOTH",
"555 -68 OFFCURVE",
"538 -91 OFFCURVE",
"483 -91 CURVE SMOOTH",
"445 -91 LINE",
"445 -240 LINE"
);
},
{
closed = 1;
nodes = (
"240 393 LINE SMOOTH",
"240 438 OFFCURVE",
"248 454 OFFCURVE",
"282 454 CURVE SMOOTH",
"324 454 LINE",
"324 395 OFFCURVE",
"294 331 OFFCURVE",
"240 288 CURVE"
);
}
);
width = 812;
}
);
unicode = A91F;
},
{
glyphname = uniA920;
lastChange = "2019-10-26 14:22:01 +0000";
layers = (
{
anchors = (
{
name = bottom;
position = "{385, 0}";
},
{
name = bottom_alt;
position = "{175, 0}";
},
{
name = top;
position = "{385, 605}";
}
);
layerId = UUID0;
paths = (
{
closed = 1;
nodes = (
"633 -10 OFFCURVE",
"684 42 OFFCURVE",
"684 264 CURVE SMOOTH",
"684 536 LINE",
"586 536 LINE",
"384 344 LINE",
"186 536 LINE",
"88 536 LINE",
"88 251 LINE",
"174 251 LINE",
"174 444 LINE",
"373 252 LINE",
"395 252 LINE",
"597 456 LINE",
"597 230 LINE SMOOTH",
"597 93 OFFCURVE",
"552 64 OFFCURVE",
"384 64 CURVE SMOOTH",
"237 64 OFFCURVE",
"182 78 OFFCURVE",
"175 129 CURVE",
"89 129 LINE",
"105 17 OFFCURVE",
"183 -10 OFFCURVE",
"385 -10 CURVE SMOOTH"
);
}
);
width = 772;
},
{
anchors = (
{
name = bottom;
position = "{406, 0}";
},
{
name = bottom_alt;
position = "{260, 0}";
},
{
name = top;
position = "{406, 605}";
}
);
layerId = "7821FCCF-1A09-48AA-92A6-4648A23E0102";
paths = (
{
closed = 1;
nodes = (
"686 -10 OFFCURVE",
"747 42 OFFCURVE",
"747 264 CURVE SMOOTH",
"747 553 LINE",
"541 553 LINE",
"405 382 LINE",
"271 553 LINE",
"65 553 LINE",
"65 251 LINE",
"259 251 LINE",
"259 391 LINE",
"374 252 LINE",
"436 252 LINE",
"553 403 LINE",
"553 230 LINE SMOOTH",
"553 133 OFFCURVE",
"518 116 OFFCURVE",
"405 116 CURVE SMOOTH",
"312 116 OFFCURVE",
"267 128 OFFCURVE",
"260 169 CURVE",
"66 169 LINE",
"82 17 OFFCURVE",
"150 -10 OFFCURVE",
"406 -10 CURVE SMOOTH"
);
}
);
width = 812;
}
);
unicode = A920;
},
{
glyphname = uniA921;
lastChange = "2019-10-26 14:22:24 +0000";
layers = (
{
anchors = (
{
name = bottom;
position = "{385, 0}";
},
{
name = bottom_alt;
position = "{175, 0}";
},
{
name = top;
position = "{385, 781}";
}
);
layerId = UUID0;
paths = (
{
closed = 1;
nodes = (
"174 0 LINE",
"174 399 LINE",
"598 0 LINE",
"684 0 LINE",
"684 460 LINE SMOOTH",
"684 682 OFFCURVE",
"633 734 OFFCURVE",
"385 734 CURVE SMOOTH",
"183 734 OFFCURVE",
"105 707 OFFCURVE",
"89 595 CURVE",
"182 595 LINE",
"189 646 OFFCURVE",
"237 663 OFFCURVE",
"384 663 CURVE SMOOTH",
"552 663 OFFCURVE",
"598 631 OFFCURVE",
"598 494 CURVE SMOOTH",
"598 112 LINE",
"174 506 LINE",
"88 506 LINE",
"88 0 LINE"
);
}
);
width = 772;
},
{
anchors = (
{
name = bottom;
position = "{406, 0}";
},
{
name = bottom_alt;
position = "{260, 0}";
},
{
name = top;
position = "{406, 781}";
}
);
layerId = "7821FCCF-1A09-48AA-92A6-4648A23E0102";
paths = (
{
closed = 1;
nodes = (
"259 0 LINE",
"259 299 LINE",
"553 0 LINE",
"747 0 LINE",
"747 460 LINE SMOOTH",
"747 682 OFFCURVE",
"696 734 OFFCURVE",
"413 734 CURVE SMOOTH",
"160 734 OFFCURVE",
"82 707 OFFCURVE",
"66 565 CURVE",
"257 565 LINE",
"264 596 OFFCURVE",
"312 613 OFFCURVE",
"404 613 CURVE SMOOTH",
"507 613 OFFCURVE",
"553 581 OFFCURVE",
"553 494 CURVE SMOOTH",
"553 212 LINE",
"259 506 LINE",
"65 506 LINE",
"65 0 LINE"
);
}
);
width = 812;
}
);
unicode = A921;
},
{
glyphname = uniA922;
lastChange = "2019-10-26 14:22:51 +0000";
layers = (
{
anchors = (
{
name = bottom;
position = "{385, 0}";
},
{
name = bottom_alt;
position = "{175, 0}";
},
{
name = top;
position = "{385, 605}";
}
);
layerId = UUID0;
paths = (
{
closed = 1;
nodes = (
"585 -10 OFFCURVE",
"684 31 OFFCURVE",
"684 208 CURVE",
"600 208 LINE",
"600 90 OFFCURVE",
"545 60 OFFCURVE",
"385 60 CURVE SMOOTH",
"202 60 OFFCURVE",
"177 100 OFFCURVE",
"177 151 CURVE SMOOTH",
"177 210 OFFCURVE",
"211 244 OFFCURVE",
"314 244 CURVE",
"314 307 LINE",
"225 307 OFFCURVE",
"187 329 OFFCURVE",
"187 394 CURVE SMOOTH",
"187 431 OFFCURVE",
"208 476 OFFCURVE",
"384 476 CURVE SMOOTH",
"526 476 OFFCURVE",
"600 445 OFFCURVE",
"601 331 CURVE",
"684 331 LINE",
"684 509 OFFCURVE",
"585 546 OFFCURVE",
"387 546 CURVE SMOOTH",
"149 546 OFFCURVE",
"98 488 OFFCURVE",
"98 397 CURVE SMOOTH",
"98 327 OFFCURVE",
"117 293 OFFCURVE",
"198 275 CURVE",
"198 271 LINE",
"115 260 OFFCURVE",
"88 223 OFFCURVE",
"88 145 CURVE SMOOTH",
"88 48 OFFCURVE",
"149 -10 OFFCURVE",
"389 -10 CURVE SMOOTH"
);
}
);
width = 772;
},
{
anchors = (
{
name = bottom;
position = "{406, 0}";
},
{
name = bottom_alt;
position = "{270, 0}";
},
{
name = top;
position = "{406, 605}";
}
);
layerId = "7821FCCF-1A09-48AA-92A6-4648A23E0102";
paths = (
{
closed = 1;
nodes = (
"645 -10 OFFCURVE",
"744 31 OFFCURVE",
"744 208 CURVE",
"552 208 LINE",
"552 141 OFFCURVE",
"523 111 OFFCURVE",
"410 111 CURVE SMOOTH",
"296 111 OFFCURVE",
"271 141 OFFCURVE",
"271 172 CURVE SMOOTH",
"271 215 OFFCURVE",
"299 228 OFFCURVE",
"379 228 CURVE",
"379 331 LINE",
"307 331 OFFCURVE",
"281 342 OFFCURVE",
"281 387 CURVE SMOOTH",
"281 422 OFFCURVE",
"310 442 OFFCURVE",
"409 442 CURVE SMOOTH",
"504 442 OFFCURVE",
"552 419 OFFCURVE",
"553 331 CURVE",
"744 331 LINE",
"744 526 OFFCURVE",
"645 563 OFFCURVE",
"412 563 CURVE SMOOTH",
"129 563 OFFCURVE",
"78 505 OFFCURVE",
"78 401 CURVE SMOOTH",
"78 331 OFFCURVE",
"97 297 OFFCURVE",
"178 279 CURVE",
"178 275 LINE",
"95 264 OFFCURVE",
"68 227 OFFCURVE",
"68 145 CURVE SMOOTH",
"68 48 OFFCURVE",
"129 -10 OFFCURVE",
"414 -10 CURVE SMOOTH"
);
}
);
width = 812;
}
);
unicode = A922;
},
{
glyphname = uniA923;
lastChange = "2019-10-26 14:23:21 +0000";
layers = (
{
anchors = (
{
name = bottom;
position = "{385, 0}";
},
{
name = bottom_alt;
position = "{175, 0}";
},
{
name = top;
position = "{385, 605}";
}
);
layerId = UUID0;
paths = (
{
closed = 1;
nodes = (
"165 -9 LINE SMOOTH",
"298 -9 OFFCURVE",
"449 46 OFFCURVE",
"542 145 CURVE SMOOTH",
"571 176 OFFCURVE",
"587 202 OFFCURVE",
"602 255 CURVE",
"607 254 LINE",
"604 237 OFFCURVE",
"598 202 OFFCURVE",
"598 145 CURVE SMOOTH",
"598 0 LINE",
"684 0 LINE",
"684 536 LINE",
"598 536 LINE",
"598 483 LINE SMOOTH",
"598 174 OFFCURVE",
"338 61 OFFCURVE",
"174 61 CURVE",
"174 536 LINE",
"88 536 LINE",
"88 -9 LINE"
);
}
);
width = 772;
},
{
anchors = (
{
name = bottom;
position = "{406, 0}";
},
{
name = bottom_alt;
position = "{259, 0}";
},
{
name = top;
position = "{406, 605}";
}
);
layerId = "7821FCCF-1A09-48AA-92A6-4648A23E0102";
paths = (
{
closed = 1;
nodes = (
"220 -10 LINE SMOOTH",
"290 -10 OFFCURVE",
"400 17 OFFCURVE",
"477 86 CURVE SMOOTH",
"515 120 OFFCURVE",
"543 157 OFFCURVE",
"555 183 CURVE",
"560 182 LINE",
"558 170 OFFCURVE",
"555 142 OFFCURVE",
"555 95 CURVE SMOOTH",
"555 0 LINE",
"747 0 LINE",
"747 553 LINE",
"554 553 LINE",
"554 480 LINE SMOOTH",
"554 282 OFFCURVE",
"392 133 OFFCURVE",
"258 133 CURVE",
"258 553 LINE",
"65 553 LINE",
"65 -10 LINE"
);
}
);
width = 812;
}
);
unicode = A923;
},
{
glyphname = uniA924;
lastChange = "2019-10-26 14:23:43 +0000";
layers = (
{
anchors = (
{
name = bottom;
position = "{385, 0}";
},
{
name = bottom_alt;
position = "{175, 0}";
},
{
name = top;
position = "{385, 605}";
}
);
layerId = UUID0;
paths = (
{
closed = 1;
nodes = (
"623 -10 OFFCURVE",
"684 47 OFFCURVE",
"684 264 CURVE SMOOTH",
"684 487 OFFCURVE",
"618 546 OFFCURVE",
"390 546 CURVE SMOOTH",
"185 546 OFFCURVE",
"88 499 OFFCURVE",
"88 328 CURVE",
"172 328 LINE",
"172 440 OFFCURVE",
"227 476 OFFCURVE",
"387 476 CURVE SMOOTH",
"562 476 OFFCURVE",
"595 423 OFFCURVE",
"595 264 CURVE SMOOTH",
"595 100 OFFCURVE",
"569 61 OFFCURVE",
"388 61 CURVE SMOOTH",
"290 61 OFFCURVE",
"232 69 OFFCURVE",
"199 87 CURVE",
"606 406 LINE",
"560 463 LINE",
"90 92 LINE",
"124 4 OFFCURVE",
"216 -10 OFFCURVE",
"385 -10 CURVE SMOOTH"
);
}
);
width = 772;
},
{
anchors = (
{
name = bottom;
position = "{406, 0}";
},
{
name = bottom_alt;
position = "{261, 0}";
},
{
name = top;
position = "{406, 605}";
}
);
background = {
paths = (
{
closed = 1;
nodes = (
"170 562 OFFCURVE",
"73 513 OFFCURVE",
"73 344 CURVE",
"259 344 LINE",
"259 403 OFFCURVE",
"314 436 OFFCURVE",
"406 436 CURVE SMOOTH",
"516 436 OFFCURVE",
"549 393 OFFCURVE",
"549 280 CURVE SMOOTH",
"549 155 OFFCURVE",
"512 116 OFFCURVE",
"407 116 CURVE SMOOTH",
"326 116 OFFCURVE",
"275 138 OFFCURVE",
"269 183 CURVE",
"660 249 LINE",
"648 347 LINE",
"73 254 LINE",
"78 53 OFFCURVE",
"144 -10 OFFCURVE",
"403 -10 CURVE SMOOTH",
"678 -10 OFFCURVE",
"739 67 OFFCURVE",
"739 280 CURVE SMOOTH",
"739 503 OFFCURVE",
"673 562 OFFCURVE",
"409 562 CURVE SMOOTH"
);
}
);
};
layerId = "7821FCCF-1A09-48AA-92A6-4648A23E0102";
paths = (
{
closed = 1;
nodes = (
"677 -10 OFFCURVE",
"747 57 OFFCURVE",
"747 274 CURVE SMOOTH",
"747 503 OFFCURVE",
"682 562 OFFCURVE",
"410 562 CURVE SMOOTH",
"152 562 OFFCURVE",
"65 515 OFFCURVE",
"65 328 CURVE",
"258 328 LINE",
"258 401 OFFCURVE",
"299 436 OFFCURVE",
"407 436 CURVE SMOOTH",
"516 436 OFFCURVE",
"549 395 OFFCURVE",
"549 274 CURVE SMOOTH",
"549 157 OFFCURVE",
"513 116 OFFCURVE",
"404 116 CURVE SMOOTH",
"325 116 OFFCURVE",
"287 124 OFFCURVE",
"261 138 CURVE",
"632 373 LINE",
"586 470 LINE",
"67 147 LINE",
"99 18 OFFCURVE",
"193 -10 OFFCURVE",
"401 -10 CURVE SMOOTH"
);
}
);
width = 812;
}
);
unicode = A924;
},
{
glyphname = uniA925;
lastChange = "2019-10-26 14:24:06 +0000";
layers = (
{
anchors = (
{
name = bottom;
position = "{385, 0}";
},
{
name = bottom_alt;
position = "{175, 0}";
},
{
name = top;
position = "{385, 605}";
}
);
layerId = UUID0;
paths = (
{
closed = 1;
nodes = (
"628 -10 OFFCURVE",
"684 49 OFFCURVE",
"684 272 CURVE SMOOTH",
"684 494 OFFCURVE",
"620 546 OFFCURVE",
"387 546 CURVE SMOOTH",
"139 546 OFFCURVE",
"88 494 OFFCURVE",
"88 272 CURVE SMOOTH",
"88 49 OFFCURVE",
"154 -10 OFFCURVE",
"382 -10 CURVE SMOOTH"
);
},
{
closed = 1;
nodes = (
"210 60 OFFCURVE",
"177 113 OFFCURVE",
"177 272 CURVE SMOOTH",
"177 436 OFFCURVE",
"203 475 OFFCURVE",
"384 475 CURVE SMOOTH",
"559 475 OFFCURVE",
"595 431 OFFCURVE",
"595 272 CURVE SMOOTH",
"595 107 OFFCURVE",
"563 60 OFFCURVE",
"385 60 CURVE SMOOTH"
);
},
{
closed = 1;
nodes = (
"504 283 OFFCURVE",
"585 334 OFFCURVE",
"600 343 CURVE",
"600 412 LINE",
"578 400 OFFCURVE",
"486 352 OFFCURVE",
"383 352 CURVE SMOOTH",
"280 352 OFFCURVE",
"189 404 OFFCURVE",
"174 412 CURVE",
"174 343 LINE",
"184 336 OFFCURVE",
"255 283 OFFCURVE",
"383 283 CURVE"
);
}
);
width = 772;
},
{
anchors = (
{
name = bottom;
position = "{406, 0}";
},
{
name = bottom_alt;
position = "{256, 0}";
},
{
name = top;
position = "{406, 605}";
}
);
layerId = "7821FCCF-1A09-48AA-92A6-4648A23E0102";
paths = (
{
closed = 1;
nodes = (
"671 -10 OFFCURVE",
"747 49 OFFCURVE",
"747 272 CURVE SMOOTH",
"747 510 OFFCURVE",
"663 562 OFFCURVE",
"402 562 CURVE SMOOTH",
"136 562 OFFCURVE",
"65 510 OFFCURVE",
"65 272 CURVE SMOOTH",
"65 49 OFFCURVE",
"151 -10 OFFCURVE",
"397 -10 CURVE SMOOTH"
);
},
{
closed = 1;
nodes = (
"287 116 OFFCURVE",
"254 169 OFFCURVE",
"254 272 CURVE SMOOTH",
"254 396 OFFCURVE",
"280 436 OFFCURVE",
"399 436 CURVE SMOOTH",
"522 436 OFFCURVE",
"558 391 OFFCURVE",
"558 272 CURVE SMOOTH",
"558 163 OFFCURVE",
"526 116 OFFCURVE",
"400 116 CURVE SMOOTH"
);
},
{
closed = 1;
nodes = (
"512 237 OFFCURVE",
"598 279 OFFCURVE",
"628 297 CURVE",
"628 402 LINE",
"591 382 OFFCURVE",
"494 342 OFFCURVE",
"403 342 CURVE SMOOTH",
"312 342 OFFCURVE",
"217 386 OFFCURVE",
"186 402 CURVE",
"186 297 LINE",
"209 281 OFFCURVE",
"287 237 OFFCURVE",
"403 237 CURVE"
);
}
);
width = 812;
}
);
unicode = A925;
},
{
glyphname = uniA926;
lastChange = "2019-10-26 12:21:36 +0000";
layers = (
{
anchors = (
{
name = _top;
position = "{-381, 566}";
}
);
layerId = UUID0;
paths = (
{
closed = 1;
nodes = (
"-358 611 OFFCURVE",
"-334 625 OFFCURVE",
"-334 663 CURVE SMOOTH",
"-334 702 OFFCURVE",
"-358 715 OFFCURVE",
"-385 715 CURVE SMOOTH",
"-414 715 OFFCURVE",
"-437 702 OFFCURVE",
"-437 663 CURVE SMOOTH",
"-437 625 OFFCURVE",
"-414 611 OFFCURVE",
"-385 611 CURVE SMOOTH"
);
}
);
width = 0;
},
{
anchors = (
{
name = _top;
position = "{-381, 566}";
}
);
layerId = "7821FCCF-1A09-48AA-92A6-4648A23E0102";
paths = (
{
closed = 1;
nodes = (
"-341 608 OFFCURVE",
"-302 630 OFFCURVE",
"-302 692 CURVE SMOOTH",
"-302 755 OFFCURVE",
"-341 776 OFFCURVE",
"-385 776 CURVE SMOOTH",
"-431 776 OFFCURVE",
"-469 755 OFFCURVE",
"-469 692 CURVE SMOOTH",
"-469 630 OFFCURVE",
"-431 608 OFFCURVE",
"-385 608 CURVE SMOOTH"
);
}
);
width = 0;
}
);
unicode = A926;
},
{
glyphname = uniA927;
lastChange = "2019-10-26 12:34:55 +0000";
layers = (
{
anchors = (
{
name = _top;
position = "{-381, 566}";
}
);
layerId = UUID0;
paths = (
{
closed = 1;
nodes = (
"-178 637 LINE",
"-582 734 LINE",
"-582 660 LINE",
"-178 564 LINE"
);
}
);
width = 0;
},
{
anchors = (
{
name = _top;
position = "{-381, 566}";
}
);
layerId = "7821FCCF-1A09-48AA-92A6-4648A23E0102";
paths = (
{
closed = 1;
nodes = (
"-168 707 LINE",
"-602 809 LINE",
"-602 675 LINE",
"-168 574 LINE"
);
}
);
width = 0;
}
);
unicode = A927;
},
{
glyphname = uniA928;
lastChange = "2019-10-26 13:28:56 +0000";
layers = (
{
anchors = (
{
name = _top;
position = "{-381, 566}";
}
);
layerId = UUID0;
paths = (
{
closed = 1;
nodes = (
"-380 661 LINE",
"-178 564 LINE",
"-178 637 LINE",
"-380 734 LINE",
"-582 637 LINE",
"-582 564 LINE"
);
}
);
width = 0;
},
{
anchors = (
{
name = _top;
position = "{-381, 566}";
}
);
layerId = "7821FCCF-1A09-48AA-92A6-4648A23E0102";
paths = (
{
closed = 1;
nodes = (
"-380 667 LINE",
"-145 564 LINE",
"-145 698 LINE",
"-380 801 LINE",
"-615 698 LINE",
"-615 564 LINE"
);
}
);
width = 0;
}
);
unicode = A928;
},
{
glyphname = uniA929;
lastChange = "2019-10-26 13:28:32 +0000";
layers = (
{
anchors = (
{
name = _top;
position = "{-381, 566}";
}
);
layerId = UUID0;
paths = (
{
closed = 1;
nodes = (
"-158 581 OFFCURVE",
"-140 655 OFFCURVE",
"-140 760 CURVE",
"-221 760 LINE",
"-221 670 OFFCURVE",
"-254 644 OFFCURVE",
"-379 644 CURVE SMOOTH",
"-504 644 OFFCURVE",
"-535 670 OFFCURVE",
"-535 760 CURVE",
"-616 760 LINE",
"-616 661 OFFCURVE",
"-604 581 OFFCURVE",
"-381 581 CURVE SMOOTH"
);
}
);
width = 0;
},
{
anchors = (
{
name = _top;
position = "{-381, 566}";
}
);
layerId = "7821FCCF-1A09-48AA-92A6-4648A23E0102";
paths = (
{
closed = 1;
nodes = (
"-118 591 OFFCURVE",
"-100 665 OFFCURVE",
"-100 810 CURVE",
"-256 810 LINE",
"-256 720 OFFCURVE",
"-289 694 OFFCURVE",
"-379 694 CURVE SMOOTH",
"-469 694 OFFCURVE",
"-500 720 OFFCURVE",
"-500 810 CURVE",
"-656 810 LINE",
"-656 671 OFFCURVE",
"-644 591 OFFCURVE",
"-381 591 CURVE SMOOTH"
);
}
);
width = 0;
}
);
unicode = A929;
},
{
glyphname = uniA92A;
lastChange = "2019-10-26 13:28:28 +0000";
layers = (
{
anchors = (
{
name = _top;
position = "{-381, 566}";
}
);
layerId = UUID0;
paths = (
{
closed = 1;
nodes = (
"-158 581 OFFCURVE",
"-140 655 OFFCURVE",
"-140 760 CURVE",
"-221 760 LINE",
"-221 670 OFFCURVE",
"-254 644 OFFCURVE",
"-379 644 CURVE SMOOTH",
"-504 644 OFFCURVE",
"-535 670 OFFCURVE",
"-535 760 CURVE",
"-616 760 LINE",
"-616 661 OFFCURVE",
"-604 581 OFFCURVE",
"-381 581 CURVE SMOOTH"
);
},
{
closed = 1;
nodes = (
"-349 657 OFFCURVE",
"-323 672 OFFCURVE",
"-323 714 CURVE SMOOTH",
"-323 757 OFFCURVE",
"-349 771 OFFCURVE",
"-379 771 CURVE SMOOTH",
"-411 771 OFFCURVE",
"-436 757 OFFCURVE",
"-436 714 CURVE SMOOTH",
"-436 672 OFFCURVE",
"-411 657 OFFCURVE",
"-379 657 CURVE SMOOTH"
);
}
);
width = 0;
},
{
anchors = (
{
name = _top;
position = "{-381, 566}";
}
);
layerId = "7821FCCF-1A09-48AA-92A6-4648A23E0102";
paths = (
{
closed = 1;
nodes = (
"-118 591 OFFCURVE",
"-100 665 OFFCURVE",
"-100 810 CURVE",
"-256 810 LINE",
"-256 720 OFFCURVE",
"-289 694 OFFCURVE",
"-379 694 CURVE SMOOTH",
"-469 694 OFFCURVE",
"-500 720 OFFCURVE",
"-500 810 CURVE",
"-656 810 LINE",
"-656 671 OFFCURVE",
"-644 591 OFFCURVE",
"-381 591 CURVE SMOOTH"
);
},
{
closed = 1;
nodes = (
"-344 709 OFFCURVE",
"-315 726 OFFCURVE",
"-315 772 CURVE SMOOTH",
"-315 819 OFFCURVE",
"-344 835 OFFCURVE",
"-377 835 CURVE SMOOTH",
"-412 835 OFFCURVE",
"-440 819 OFFCURVE",
"-440 772 CURVE SMOOTH",
"-440 726 OFFCURVE",
"-412 709 OFFCURVE",
"-377 709 CURVE SMOOTH"
);
}
);
width = 0;
}
);
unicode = A92A;
},
{
glyphname = uniA92B;
lastChange = "2019-10-26 12:22:25 +0000";
layers = (
{
anchors = (
{
name = _bottom;
position = "{-386, 0}";
}
);
layerId = UUID0;
paths = (
{
closed = 1;
nodes = (
"-358 -160 OFFCURVE",
"-334 -146 OFFCURVE",
"-334 -108 CURVE SMOOTH",
"-334 -69 OFFCURVE",
"-358 -56 OFFCURVE",
"-385 -56 CURVE SMOOTH",
"-414 -56 OFFCURVE",
"-437 -69 OFFCURVE",
"-437 -108 CURVE SMOOTH",
"-437 -146 OFFCURVE",
"-414 -160 OFFCURVE",
"-385 -160 CURVE SMOOTH"
);
}
);
width = 0;
},
{
anchors = (
{
name = _bottom;
position = "{-386, 0}";
}
);
layerId = "7821FCCF-1A09-48AA-92A6-4648A23E0102";
paths = (
{
closed = 1;
nodes = (
"-341 -222 OFFCURVE",
"-302 -200 OFFCURVE",
"-302 -138 CURVE SMOOTH",
"-302 -75 OFFCURVE",
"-341 -54 OFFCURVE",
"-385 -54 CURVE SMOOTH",
"-431 -54 OFFCURVE",
"-469 -75 OFFCURVE",
"-469 -138 CURVE SMOOTH",
"-469 -200 OFFCURVE",
"-431 -222 OFFCURVE",
"-385 -222 CURVE SMOOTH"
);
}
);
width = 0;
}
);
unicode = A92B;
},
{
glyphname = uniA92C;
lastChange = "2019-10-26 14:04:45 +0000";
layers = (
{
anchors = (
{
name = _bottom_alt;
position = "{-586, 0}";
}
);
layerId = UUID0;
paths = (
{
closed = 1;
nodes = (
"-187 -240 OFFCURVE",
"-88 -202 OFFCURVE",
"-88 -52 CURVE",
"-169 -52 LINE",
"-169 -154 OFFCURVE",
"-227 -177 OFFCURVE",
"-387 -177 CURVE SMOOTH",
"-570 -177 OFFCURVE",
"-598 -130 OFFCURVE",
"-598 -79 CURVE SMOOTH",
"-598 -30 OFFCURVE",
"-571 -7 OFFCURVE",
"-505 2 CURVE",
"-505 30 LINE",
"-574 30 LINE",
"-657 19 OFFCURVE",
"-684 -7 OFFCURVE",
"-684 -85 CURVE SMOOTH",
"-684 -182 OFFCURVE",
"-623 -240 OFFCURVE",
"-383 -240 CURVE SMOOTH"
);
}
);
width = 0;
},
{
anchors = (
{
name = _bottom_alt;
position = "{-543, 0}";
}
);
layerId = "7821FCCF-1A09-48AA-92A6-4648A23E0102";
paths = (
{
closed = 1;
nodes = (
"-173 -246 OFFCURVE",
"-74 -208 OFFCURVE",
"-74 -52 CURVE",
"-257 -52 LINE",
"-257 -114 OFFCURVE",
"-305 -137 OFFCURVE",
"-413 -137 CURVE SMOOTH",
"-530 -137 OFFCURVE",
"-553 -100 OFFCURVE",
"-553 -68 CURVE SMOOTH",
"-553 -30 OFFCURVE",
"-526 -7 OFFCURVE",
"-460 2 CURVE",
"-460 30 LINE",
"-639 30 LINE",
"-722 19 OFFCURVE",
"-749 -7 OFFCURVE",
"-749 -85 CURVE SMOOTH",
"-749 -188 OFFCURVE",
"-688 -246 OFFCURVE",
"-409 -246 CURVE SMOOTH"
);
}
);
width = 0;
}
);
unicode = A92C;
},
{
glyphname = uniA92D;
lastChange = "2019-10-26 14:04:37 +0000";
layers = (
{
anchors = (
{
name = _bottom_alt;
position = "{-586, 0}";
}
);
layerId = UUID0;
paths = (
{
closed = 1;
nodes = (
"-187 -240 OFFCURVE",
"-88 -202 OFFCURVE",
"-88 -52 CURVE",
"-169 -52 LINE",
"-169 -154 OFFCURVE",
"-227 -177 OFFCURVE",
"-387 -177 CURVE SMOOTH",
"-570 -177 OFFCURVE",
"-598 -130 OFFCURVE",
"-598 -79 CURVE SMOOTH",
"-598 -30 OFFCURVE",
"-571 -7 OFFCURVE",
"-505 2 CURVE",
"-505 30 LINE",
"-574 30 LINE",
"-657 19 OFFCURVE",
"-684 -7 OFFCURVE",
"-684 -85 CURVE SMOOTH",
"-684 -182 OFFCURVE",
"-623 -240 OFFCURVE",
"-383 -240 CURVE SMOOTH"
);
},
{
closed = 1;
nodes = (
"-358 -140 OFFCURVE",
"-334 -126 OFFCURVE",
"-334 -88 CURVE SMOOTH",
"-334 -49 OFFCURVE",
"-358 -36 OFFCURVE",
"-385 -36 CURVE SMOOTH",
"-414 -36 OFFCURVE",
"-437 -49 OFFCURVE",
"-437 -88 CURVE SMOOTH",
"-437 -126 OFFCURVE",
"-414 -140 OFFCURVE",
"-385 -140 CURVE SMOOTH"
);
}
);
width = 0;
},
{
anchors = (
{
name = _bottom_alt;
position = "{-543, 0}";
}
);
layerId = "7821FCCF-1A09-48AA-92A6-4648A23E0102";
paths = (
{
closed = 1;
nodes = (
"-173 -246 OFFCURVE",
"-74 -208 OFFCURVE",
"-74 -52 CURVE",
"-257 -52 LINE",
"-257 -123 OFFCURVE",
"-305 -146 OFFCURVE",
"-413 -146 CURVE SMOOTH",
"-530 -146 OFFCURVE",
"-553 -109 OFFCURVE",
"-553 -68 CURVE SMOOTH",
"-553 -30 OFFCURVE",
"-526 -7 OFFCURVE",
"-460 2 CURVE",
"-460 30 LINE",
"-639 30 LINE",
"-722 19 OFFCURVE",
"-749 -7 OFFCURVE",
"-749 -85 CURVE SMOOTH",
"-749 -188 OFFCURVE",
"-688 -246 OFFCURVE",
"-409 -246 CURVE SMOOTH"
);
},
{
closed = 1;
nodes = (
"-373 -135 OFFCURVE",
"-347 -120 OFFCURVE",
"-347 -78 CURVE SMOOTH",
"-347 -35 OFFCURVE",
"-373 -21 OFFCURVE",
"-403 -21 CURVE SMOOTH",
"-435 -21 OFFCURVE",
"-460 -35 OFFCURVE",
"-460 -78 CURVE SMOOTH",
"-460 -120 OFFCURVE",
"-435 -135 OFFCURVE",
"-403 -135 CURVE SMOOTH"
);
}
);
width = 0;
}
);
unicode = A92D;
},
{
glyphname = uniA92E;
lastChange = "2019-10-26 13:18:17 +0000";
layers = (
{
layerId = UUID0;
paths = (
{
closed = 1;
nodes = (
"99 276 OFFCURVE",
"198 319 OFFCURVE",
"385 319 CURVE SMOOTH",
"572 319 OFFCURVE",
"673 276 OFFCURVE",
"713 231 CURVE",
"734 241 LINE",
"704 321 OFFCURVE",
"564 394 OFFCURVE",
"383 394 CURVE SMOOTH",
"202 394 OFFCURVE",
"68 320 OFFCURVE",
"38 241 CURVE",
"59 231 LINE"
);
}
);
width = 772;
},
{
layerId = "7821FCCF-1A09-48AA-92A6-4648A23E0102";
paths = (
{
closed = 1;
nodes = (
"99 266 OFFCURVE",
"188 299 OFFCURVE",
"385 299 CURVE SMOOTH",
"582 299 OFFCURVE",
"673 266 OFFCURVE",
"723 221 CURVE",
"744 231 LINE",
"711 330 OFFCURVE",
"574 414 OFFCURVE",
"383 414 CURVE SMOOTH",
"192 414 OFFCURVE",
"61 329 OFFCURVE",
"28 231 CURVE",
"49 221 LINE"
);
}
);
width = 772;
}
);
unicode = A92E;
},
{
glyphname = uniA92F;
lastChange = "2019-10-26 11:00:59 +0000";
layers = (
{
layerId = UUID0;
paths = (
{
closed = 1;
nodes = (
"172 1 LINE",
"172 536 LINE",
"88 536 LINE",
"88 1 LINE"
);
}
);
width = 260;
},
{
layerId = "7821FCCF-1A09-48AA-92A6-4648A23E0102";
paths = (
{
closed = 1;
nodes = (
"259 1 LINE",
"259 536 LINE",
"65 536 LINE",
"65 1 LINE"
);
}
);
width = 324;
}
);
unicode = A92F;
},
{
glyphname = uniA92C.alt;
lastChange = "2019-10-26 14:05:16 +0000";
layers = (
{
anchors = (
{
name = _bottom_alt;
position = "{-596, 0}";
}
);
layerId = UUID0;
paths = (
{
closed = 1;
nodes = (
"-172 -240 OFFCURVE",
"-88 -195 OFFCURVE",
"-88 -52 CURVE",
"-169 -52 LINE",
"-169 -152 OFFCURVE",
"-221 -177 OFFCURVE",
"-387 -177 CURVE SMOOTH",
"-543 -177 OFFCURVE",
"-598 -151 OFFCURVE",
"-598 -68 CURVE SMOOTH",
"-598 15 LINE",
"-684 15 LINE",
"-684 -72 LINE SMOOTH",
"-684 -199 OFFCURVE",
"-607 -240 OFFCURVE",
"-383 -240 CURVE SMOOTH"
);
}
);
width = 0;
},
{
anchors = (
{
name = _bottom_alt;
position = "{-551, 0}";
}
);
layerId = "7821FCCF-1A09-48AA-92A6-4648A23E0102";
paths = (
{
closed = 1;
nodes = (
"-161 -246 OFFCURVE",
"-74 -201 OFFCURVE",
"-74 -52 CURVE",
"-257 -52 LINE",
"-257 -122 OFFCURVE",
"-309 -146 OFFCURVE",
"-405 -146 CURVE SMOOTH",
"-516 -146 OFFCURVE",
"-553 -121 OFFCURVE",
"-553 -68 CURVE SMOOTH",
"-553 15 LINE",
"-749 15 LINE",
"-749 -72 LINE SMOOTH",
"-749 -205 OFFCURVE",
"-668 -246 OFFCURVE",
"-401 -246 CURVE SMOOTH"
);
}
);
width = 0;
}
);
},
{
glyphname = uniA92D.alt;
lastChange = "2019-10-26 14:05:28 +0000";
layers = (
{
anchors = (
{
name = _bottom_alt;
position = "{-596, 0}";
}
);
layerId = UUID0;
paths = (
{
closed = 1;
nodes = (
"-172 -240 OFFCURVE",
"-88 -195 OFFCURVE",
"-88 -52 CURVE",
"-169 -52 LINE",
"-169 -152 OFFCURVE",
"-221 -177 OFFCURVE",
"-387 -177 CURVE SMOOTH",
"-543 -177 OFFCURVE",
"-598 -151 OFFCURVE",
"-598 -68 CURVE SMOOTH",
"-598 15 LINE",
"-684 15 LINE",
"-684 -72 LINE SMOOTH",
"-684 -199 OFFCURVE",
"-607 -240 OFFCURVE",
"-383 -240 CURVE SMOOTH"
);
},
{
closed = 1;
nodes = (
"-352 -140 OFFCURVE",
"-334 -121 OFFCURVE",
"-334 -88 CURVE SMOOTH",
"-334 -53 OFFCURVE",
"-353 -36 OFFCURVE",
"-385 -36 CURVE SMOOTH",
"-420 -36 OFFCURVE",
"-437 -53 OFFCURVE",
"-437 -88 CURVE SMOOTH",
"-437 -121 OFFCURVE",
"-420 -140 OFFCURVE",
"-385 -140 CURVE SMOOTH"
);
}
);
width = 0;
},
{
anchors = (
{
name = _bottom_alt;
position = "{-551, 0}";
}
);
layerId = "7821FCCF-1A09-48AA-92A6-4648A23E0102";
paths = (
{
closed = 1;
nodes = (
"-161 -246 OFFCURVE",
"-74 -201 OFFCURVE",
"-74 -52 CURVE",
"-257 -52 LINE",
"-257 -122 OFFCURVE",
"-309 -146 OFFCURVE",
"-405 -146 CURVE SMOOTH",
"-516 -146 OFFCURVE",
"-553 -121 OFFCURVE",
"-553 -68 CURVE SMOOTH",
"-553 15 LINE",
"-749 15 LINE",
"-749 -72 LINE SMOOTH",
"-749 -205 OFFCURVE",
"-668 -246 OFFCURVE",
"-401 -246 CURVE SMOOTH"
);
},
{
closed = 1;
nodes = (
"-376 -135 OFFCURVE",
"-350 -120 OFFCURVE",
"-350 -78 CURVE SMOOTH",
"-350 -35 OFFCURVE",
"-376 -21 OFFCURVE",
"-406 -21 CURVE SMOOTH",
"-438 -21 OFFCURVE",
"-463 -35 OFFCURVE",
"-463 -78 CURVE SMOOTH",
"-463 -120 OFFCURVE",
"-438 -135 OFFCURVE",
"-406 -135 CURVE SMOOTH"
);
}
);
width = 0;
}
);
},
